<?xml version="1.0" encoding="UTF-8" standalone="no"?>
<!-- Created with Inkscape (http://www.inkscape.org/) -->

<svg
   width="42.333336mm"
   height="10.583337mm"
   viewBox="0 0 42.333338 10.583337"
   version="1.1"
   id="svg5"
   inkscape:version="1.1.1 (3bf5ae0d25, 2021-09-20)"
   sodipodi:docname="icons_medium.svg"
   inkscape:export-filename="C:\Users\ab-cb\Desktop\grass.png"
   inkscape:export-xdpi="125.50024"
   inkscape:export-ydpi="125.50024"
   xmlns:inkscape="http://www.inkscape.org/namespaces/inkscape"
   xmlns:sodipodi="http://sodipodi.sourceforge.net/DTD/sodipodi-0.dtd"
   xmlns="http://www.w3.org/2000/svg"
   xmlns:svg="http://www.w3.org/2000/svg">
  <sodipodi:namedview
     id="namedview7"
     pagecolor="#a2a2a2"
     bordercolor="#000000"
     borderopacity="0.35294118"
     inkscape:pageshadow="0"
     inkscape:pageopacity="0"
     inkscape:pagecheckerboard="1"
     inkscape:document-units="mm"
     showgrid="false"
     inkscape:zoom="2.6560697"
     inkscape:cx="88.85309"
     inkscape:cy="1.3177365"
     inkscape:window-width="1350"
     inkscape:window-height="705"
     inkscape:window-x="0"
     inkscape:window-y="0"
     inkscape:window-maximized="0"
     inkscape:current-layer="g2195"
     inkscape:snap-bbox="true"
     inkscape:snap-bbox-midpoints="true"
     inkscape:bbox-paths="true"
     inkscape:bbox-nodes="true"
     inkscape:snap-bbox-edge-midpoints="true"
     inkscape:snap-smooth-nodes="true"
     inkscape:snap-intersection-paths="true"
     inkscape:object-paths="true"
     inkscape:snap-midpoints="true"
     inkscape:snap-object-midpoints="true"
     inkscape:snap-global="false" />
  <defs
     id="defs2" />
  <g
     inkscape:label="Capa 1"
     inkscape:groupmode="layer"
     id="layer1"
     transform="translate(94.472795,-373.80996)">
    <text
       xml:space="preserve"
       style="font-style:normal;font-weight:normal;font-size:10.5833px;line-height:1.25;font-family:sans-serif;fill:#000000;fill-opacity:1;stroke:none;stroke-width:0.264583"
       x="464.92505"
       y="558.8772"
       id="text1825"><tspan
         sodipodi:role="line"
         id="tspan1823"
         style="stroke-width:0.264583"
         x="464.92505"
         y="558.8772" /></text>
    <g
       id="g8441"
       inkscape:export-filename="C:\Users\ab-cb\Documents\GitHub\my-godotshaders\GrassPainter\addons\terra_grass\icon.png"
       inkscape:export-xdpi="125.50024"
       inkscape:export-ydpi="125.50024">
      <g
         id="g8254" />
    </g>
    <g
       id="g1377"
       transform="matrix(0.84523329,0,0,0.84523328,-14.398168,52.825963)">
      <rect
         style="fill:#79f09e;fill-opacity:0;stroke-width:0.264999;stroke-linecap:round;stroke-linejoin:round"
         id="rect1225"
         width="160.27133"
         height="160.27133"
         x="-111.96909"
         y="366.5766"
         ry="1.8997453" />
      <g
         id="g7498"
         transform="matrix(0.73944086,0,0,0.73944087,35.60698,523.56642)"
         style="opacity:0.411">
        <g
           id="g2342"
           transform="translate(53.642877,20.451418)"
           style="fill:#f2f2f2;fill-opacity:0">
          <rect
             style="fill:#f2f2f2;fill-opacity:0;stroke-width:0.700001;stroke-linecap:round;stroke-linejoin:round"
             id="rect2304"
             width="16.933332"
             height="16.933332"
             x="-229.9162"
             y="-214.93423"
             ry="0" />
        </g>
        <g
           id="g7413"
           transform="translate(-20.463942,-0.64352718)">
          <g
             id="rect940">
            <path
               style="color:#000000;fill:#79f09e;fill-opacity:0;stroke-width:0.6;stroke-linecap:round;stroke-linejoin:round;stroke-dasharray:2.4, 1.2;-inkscape-stroke:none"
               d="m -153.56363,-192.65862 h 10.87802 c 0.77971,0 1.40742,0.62772 1.40742,1.40743 v 10.87801 c 0,0.77972 -0.62771,1.40743 -1.40742,1.40743 h -10.87802 c -0.77971,0 -1.40742,-0.62771 -1.40742,-1.40743 v -10.87801 c 0,-0.77971 0.62771,-1.40743 1.40742,-1.40743 z"
               id="path6830" />
            <path
               style="color:#000000;fill:#f2f2f2;stroke-linecap:round;stroke-linejoin:round;stroke-dasharray:2.4, 1.2;-inkscape-stroke:none"
               d="m -153.57031,-192.95898 -0.0742,0.002 c -0.005,5.6e-4 -0.009,10e-4 -0.0137,0.002 l -0.0723,0.004 c -0.005,5.3e-4 -0.0104,10e-4 -0.0156,0.002 l -0.0703,0.01 c -0.005,5.6e-4 -0.009,10e-4 -0.0137,0.002 l -0.0703,0.0117 c -0.005,10e-4 -0.0104,0.003 -0.0156,0.004 l -0.0664,0.0156 c -0.005,10e-4 -0.0104,0.003 -0.0156,0.004 l -0.0664,0.0176 c -0.005,0.002 -0.009,0.004 -0.0137,0.006 l -0.0664,0.0215 c -0.005,0.001 -0.009,0.003 -0.0137,0.004 l -0.0645,0.0254 c -0.005,0.002 -0.009,0.004 -0.0137,0.006 l -0.0625,0.0293 c -0.004,0.002 -0.008,0.004 -0.0117,0.006 l -0.0605,0.0312 c -0.005,0.002 -0.009,0.004 -0.0137,0.006 l -0.0586,0.0352 c -0.005,0.002 -0.009,0.004 -0.0137,0.006 l -0.0566,0.0371 c -0.004,0.003 -0.008,0.005 -0.0117,0.008 l -0.0547,0.0391 c -0.004,0.003 -0.008,0.007 -0.0117,0.01 l -0.0527,0.041 c -0.004,0.003 -0.008,0.007 -0.0117,0.01 l -0.0508,0.043 c -0.004,0.003 -0.008,0.007 -0.0117,0.01 l -0.0488,0.0469 -0.01,0.01 -0.0469,0.0488 c -0.003,0.004 -0.007,0.008 -0.01,0.0117 l -0.043,0.0508 c -0.003,0.004 -0.007,0.008 -0.01,0.0117 l -0.041,0.0527 c -0.003,0.004 -0.007,0.008 -0.01,0.0117 l -0.0391,0.0547 c -0.003,0.004 -0.005,0.008 -0.008,0.0117 l -0.0371,0.0566 c -0.002,0.005 -0.004,0.009 -0.006,0.0137 l -0.0352,0.0586 c -0.002,0.004 -0.004,0.008 -0.006,0.0117 l -0.0312,0.0625 c -0.002,0.004 -0.004,0.008 -0.006,0.0117 l -0.0293,0.0625 c -0.002,0.005 -0.004,0.009 -0.006,0.0137 l -0.0254,0.0645 c -0.001,0.005 -0.003,0.009 -0.004,0.0137 l -0.0215,0.0664 c -0.002,0.005 -0.004,0.009 -0.006,0.0137 l -0.0176,0.0664 c -10e-4,0.005 -0.003,0.0104 -0.004,0.0156 l -0.0156,0.0664 c -0.001,0.005 -0.003,0.0104 -0.004,0.0156 l -0.006,0.0332 c -0.0289,0.16283 0.0794,0.31834 0.24219,0.34766 0.16351,0.0301 0.32032,-0.0785 0.34961,-0.24219 l 0.004,-0.0273 0.0117,-0.0527 0.0156,-0.0527 0.0176,-0.0508 0.0195,-0.0508 0.0215,-0.0488 0.0254,-0.0469 0.0254,-0.0469 0.0293,-0.0449 0.0312,-0.043 0.0332,-0.043 0.0332,-0.0391 0.0371,-0.0391 0.0391,-0.0371 0.0391,-0.0351 0.043,-0.0312 0.043,-0.0312 0.0449,-0.0293 0.0469,-0.0254 0.0469,-0.0254 0.0488,-0.0215 0.0508,-0.0195 0.0508,-0.0176 0.0527,-0.0156 0.0527,-0.0117 0.0547,-0.01 0.0566,-0.008 0.0566,-0.004 0.0566,-0.002 h 0.008 2.39258 c 0.16553,4.3e-4 0.30013,-0.1333 0.30078,-0.29883 4.3e-4,-0.1663 -0.13448,-0.30121 -0.30078,-0.30078 h -2.40039 c -6.7e-4,6.6e-4 -0.001,0.001 -0.002,0.002 -0.001,-6.8e-4 -0.003,-10e-4 -0.004,-0.002 z m 3.60742,0 c -0.1663,-4.3e-4 -0.30121,0.13448 -0.30078,0.30078 6.5e-4,0.16553 0.13525,0.29926 0.30078,0.29883 h 2.39844 c 0.16553,4.3e-4 0.30013,-0.1333 0.30078,-0.29883 4.3e-4,-0.1663 -0.13448,-0.30121 -0.30078,-0.30078 z m 3.59961,0 c -0.1663,-4.3e-4 -0.30121,0.13448 -0.30078,0.30078 6.5e-4,0.16553 0.13525,0.29926 0.30078,0.29883 h 2.40039 c 0.16477,-6.4e-4 0.29819,-0.13406 0.29883,-0.29883 4.3e-4,-0.16553 -0.1333,-0.30013 -0.29883,-0.30078 z m 3.59961,0 c -0.1663,-4.3e-4 -0.30121,0.13448 -0.30078,0.30078 6.5e-4,0.16553 0.13525,0.29926 0.30078,0.29883 h 0.0742 l 0.0605,0.002 0.0566,0.004 0.0566,0.008 0.0547,0.01 0.0527,0.0117 0.0527,0.0156 0.0527,0.0176 0.0488,0.0195 0.0488,0.0215 0.0488,0.0254 0.0469,0.0254 0.043,0.0293 0.0449,0.0312 0.041,0.0312 0.041,0.0351 0.0371,0.0371 0.0371,0.0391 0.0351,0.0391 0.0332,0.043 0.0293,0.043 0.0293,0.0449 0.0273,0.0469 0.0234,0.0469 0.0234,0.0488 0.0195,0.0508 0.0176,0.0508 0.0137,0.0527 0.0117,0.0527 0.01,0.0547 0.008,0.0566 0.004,0.0566 0.002,0.0605 v 0.10743 c 6.5e-4,0.16553 0.13525,0.29925 0.30078,0.29882 0.16477,-6.5e-4 0.29817,-0.13405 0.29882,-0.29882 v -0.11133 c 2e-5,-0.002 2e-5,-0.004 0,-0.006 l -0.002,-0.0742 c 1e-4,-0.005 1e-4,-0.009 0,-0.0137 l -0.006,-0.0723 c -5.3e-4,-0.005 -0.001,-0.0104 -0.002,-0.0156 l -0.008,-0.0703 c -5.6e-4,-0.005 -0.001,-0.009 -0.002,-0.0137 l -0.0137,-0.0703 c -5.3e-4,-0.005 -0.001,-0.0104 -0.002,-0.0156 l -0.0156,-0.0664 c -10e-4,-0.005 -0.003,-0.0104 -0.004,-0.0156 l -0.0195,-0.0664 c -0.001,-0.005 -0.003,-0.009 -0.004,-0.0137 l -0.0215,-0.0664 c -0.002,-0.005 -0.004,-0.009 -0.006,-0.0137 l -0.0254,-0.0645 c -0.002,-0.005 -0.004,-0.009 -0.006,-0.0137 l -0.0274,-0.0625 c -0.002,-0.004 -0.004,-0.008 -0.006,-0.0117 l -0.0312,-0.0625 c -0.003,-0.004 -0.005,-0.008 -0.008,-0.0117 l -0.0332,-0.0586 c -0.003,-0.005 -0.005,-0.009 -0.008,-0.0137 l -0.0371,-0.0566 c -0.003,-0.004 -0.005,-0.008 -0.008,-0.0117 l -0.0391,-0.0547 c -0.003,-0.004 -0.005,-0.008 -0.008,-0.0117 l -0.043,-0.0527 c -0.003,-0.004 -0.005,-0.008 -0.008,-0.0117 l -0.0449,-0.0508 c -0.003,-0.004 -0.007,-0.008 -0.01,-0.0117 l -0.0469,-0.0488 -0.01,-0.01 -0.0488,-0.0469 -0.01,-0.01 -0.0527,-0.043 -0.01,-0.01 -0.0547,-0.041 -0.01,-0.01 -0.0566,-0.0391 c -0.004,-0.003 -0.008,-0.005 -0.0117,-0.008 l -0.0566,-0.0371 c -0.004,-0.002 -0.008,-0.004 -0.0117,-0.006 l -0.0605,-0.0352 c -0.004,-0.002 -0.008,-0.004 -0.0117,-0.006 l -0.0606,-0.0312 c -0.005,-0.002 -0.009,-0.004 -0.0137,-0.006 l -0.0625,-0.0293 c -0.005,-0.002 -0.009,-0.004 -0.0137,-0.006 l -0.0645,-0.0254 c -0.005,-0.001 -0.009,-0.003 -0.0137,-0.004 l -0.0644,-0.0215 c -0.005,-0.002 -0.0104,-0.004 -0.0156,-0.006 l -0.0664,-0.0176 c -0.005,-0.001 -0.009,-0.003 -0.0137,-0.004 l -0.0684,-0.0156 c -0.005,-0.001 -0.0104,-0.003 -0.0156,-0.004 l -0.0684,-0.0117 c -0.005,-8e-4 -0.0104,-0.001 -0.0156,-0.002 l -0.0703,-0.01 c -0.005,-8e-4 -0.0104,-0.001 -0.0156,-0.002 l -0.0703,-0.004 c -0.005,-8e-4 -0.0104,-0.001 -0.0156,-0.002 l -0.0723,-0.002 c -0.003,-4e-5 -0.005,-4e-5 -0.008,0 z m -12.20703,1.38653 c -0.1663,-4.3e-4 -0.30122,0.13449 -0.30078,0.30079 v 0.97226 c -4.3e-4,0.1663 0.13448,0.30121 0.30078,0.30078 0.16553,-6.5e-4 0.29926,-0.13525 0.29883,-0.30078 v -0.97226 c 4.4e-4,-0.16554 -0.13329,-0.30014 -0.29883,-0.30079 z m 13.69336,0.19946 c -0.16553,-4.3e-4 -0.30013,0.13329 -0.30078,0.29882 l -0.0365,1.37053 c -4.4e-4,0.1663 0.13448,0.30122 0.30078,0.30079 0.16553,-6.5e-4 0.29926,-0.13526 0.29882,-0.30079 l 0.0365,-1.37053 c -6.5e-4,-0.16477 -0.13405,-0.29817 -0.29882,-0.29882 z m -13.69336,8.27875 c -0.1663,-4.3e-4 -0.30121,0.13448 -0.30078,0.30078 v 2.09034 c 6.5e-4,0.16553 0.13525,0.29925 0.30078,0.29882 0.16477,-6.4e-4 0.29818,-0.13405 0.29883,-0.29882 v -2.09034 c 4.3e-4,-0.16553 -0.1333,-0.30013 -0.29883,-0.30078 z m 0.0859,3.29151 c -0.13535,0.0955 -0.16771,0.28257 -0.0723,0.41796 l 0.0195,0.0293 0.01,0.01 0.041,0.0547 0.01,0.01 0.043,0.0508 c 0.003,0.004 0.007,0.008 0.01,0.0117 l 0.0469,0.0488 0.01,0.01 0.0488,0.0469 c 0.004,0.003 0.008,0.007 0.0117,0.01 l 0.0508,0.0449 c 0.004,0.003 0.008,0.005 0.0117,0.008 l 0.0527,0.043 c 0.004,0.003 0.008,0.005 0.0117,0.008 l 0.0547,0.0391 c 0.004,0.003 0.008,0.005 0.0117,0.008 l 0.0566,0.0371 c 0.004,0.003 0.009,0.005 0.0137,0.008 l 0.0586,0.0332 c 0.005,0.003 0.009,0.005 0.0137,0.008 l 0.0605,0.0293 c 0.004,0.003 0.008,0.005 0.0117,0.008 l 0.0625,0.0274 c 0.005,0.002 0.009,0.004 0.0137,0.006 l 0.0645,0.0254 c 0.005,0.002 0.009,0.004 0.0137,0.006 l 0.0664,0.0215 c 0.005,0.001 0.009,0.003 0.0137,0.004 l 0.0664,0.0195 c 0.005,10e-4 0.0104,0.003 0.0156,0.004 l 0.0664,0.0156 c 0.005,8e-4 0.0104,10e-4 0.0156,0.002 l 0.0703,0.0117 c 0.005,10e-4 0.009,0.003 0.0137,0.004 l 0.0703,0.008 c 0.005,8e-4 0.0104,10e-4 0.0156,0.002 l 0.0723,0.006 c 0.005,1e-4 0.009,1e-4 0.0137,0 l 0.0742,0.002 c 0.002,2e-5 0.004,2e-5 0.006,0 h 1.05859 c 0.16553,4.3e-4 0.30013,-0.13329 0.30078,-0.29882 4.3e-4,-0.1663 -0.13448,-0.30121 -0.30078,-0.30078 h -1.05469 l -0.0605,-0.002 -0.0566,-0.004 -0.0566,-0.008 -0.0547,-0.01 -0.0527,-0.0117 -0.0527,-0.0156 -0.0508,-0.0156 -0.0508,-0.0215 -0.0488,-0.0215 -0.0469,-0.0234 -0.0469,-0.0273 -0.0449,-0.0293 -0.043,-0.0293 -0.043,-0.0332 -0.0391,-0.0351 -0.0391,-0.0371 -0.0371,-0.0371 -0.0332,-0.041 -0.0332,-0.041 -0.0156,-0.0215 c -0.0955,-0.13535 -0.28258,-0.16772 -0.41797,-0.0723 z m 3.57813,0.53711 c -0.16553,6.5e-4 -0.29926,0.13525 -0.29883,0.30078 6.5e-4,0.16477 0.13406,0.29818 0.29883,0.29882 h 4.95837 c 0.16553,4.3e-4 0.30013,-0.13329 0.30078,-0.29882 4.3e-4,-0.1663 -0.13448,-0.30121 -0.30078,-0.30078 z"
               id="path6832"
               sodipodi:nodetypes="ccccccccccccccccccccccccccccccccccccccccccccccccccccccccccccccccccccccccccccccccccccccccccccccccccccccccccccccccccccccccccccccccccccccccccccccccccccccccccccccccccccccccccccccccccccccccccccccccccccccccccccccccccccccccccccccccccccccccccccccccccccccccccccccccccccccccccccccccccccccccccccccccccccccccccccccccccccccccc" />
            <path
               style="color:#000000;fill:#f2f2f2;stroke-linecap:round;stroke-linejoin:round;stroke-dasharray:2.4, 1.2;-inkscape-stroke:none"
               d="m -154.9707,-188.90422 c -0.1663,-4.3e-4 -0.30121,0.13448 -0.30078,0.30078 v 4.2097 c 6.5e-4,0.16553 0.13525,0.29925 0.30078,0.29882 0.16477,-6.4e-4 0.29818,-0.13405 0.29883,-0.29882 v -4.2097 c 4.3e-4,-0.16553 -0.1333,-0.30013 -0.29883,-0.30078 z"
               id="path3923"
               sodipodi:nodetypes="ccccccc" />
          </g>
          <g
             id="g6614"
             transform="matrix(0.7273235,0,0,0.7273235,-42.794796,-57.518305)">
            <path
               style="fill:none;fill-opacity:0;stroke:#ffffff;stroke-width:0.6;stroke-linecap:round;stroke-linejoin:round;stroke-miterlimit:4;stroke-dasharray:none;stroke-opacity:1"
               d="m -136.09597,-172.3521 c 0.0881,-0.27816 0.63968,-0.48833 0.97185,-0.31911 0.52482,0.26735 1.98731,1.7767 2.33637,3.21868 0.85885,3.54799 -1.61486,5.18054 -4.09149,4.64311 -1.71299,-0.37172 -2.84196,-1.28661 -3.22523,-1.83397 -0.17785,-0.25398 -0.15845,-1.00369 0.0341,-1.38617"
               id="path2637"
               sodipodi:nodetypes="cssssc" />
            <path
               style="fill:none;fill-opacity:0;stroke:#ffffff;stroke-width:0.6;stroke-linecap:round;stroke-linejoin:round;stroke-miterlimit:4;stroke-dasharray:none;stroke-opacity:1"
               d="m -138.7214,-167.18827 c -2.29994,-1.76396 -2.0898,-2.39509 -1.79557,-2.78372 0.39138,-0.51696 1.24477,-0.12332 2.54984,1.27519"
               id="path2639"
               sodipodi:nodetypes="csc" />
            <path
               style="fill:none;fill-opacity:0;stroke:#ffffff;stroke-width:0.6;stroke-linecap:round;stroke-linejoin:round;stroke-miterlimit:4;stroke-dasharray:none;stroke-opacity:1"
               d="m -136.7487,-169.68315 c -0.858,-0.84476 -1.74643,-2.20688 -2.49488,-1.18943"
               id="path2641"
               sodipodi:nodetypes="cc" />
            <path
               style="fill:none;fill-opacity:0;stroke:#ffffff;stroke-width:0.6;stroke-linecap:round;stroke-linejoin:round;stroke-miterlimit:4;stroke-dasharray:none;stroke-opacity:1"
               d="m -135.38521,-170.52445 c -0.75371,-0.64383 -1.42712,-2.09061 -2.32082,-1.33448"
               id="path2643"
               sodipodi:nodetypes="cc" />
          </g>
          <g
             aria-label="Drop"
             id="text11354"
             style="font-size:6.16444px;fill:#ffffff;stroke:#f6f6f6;stroke-width:0.666236"
             transform="matrix(0.8398033,0,0,0.8398033,-22.836957,-29.997688)">
            <g
               id="path3612">
              <path
                 style="color:#000000;stroke:none;-inkscape-stroke:none"
                 d="m -151.26159,-186.50247 q 0,0.61103 -0.26789,1.10768 -0.26488,0.49664 -0.70735,0.77055 -0.30702,0.18963 -0.68627,0.27391 -0.37625,0.0843 -0.9933,0.0843 h -1.13175 v -4.48186 h 1.11971 q 0.65618,0 1.04146,0.0963 0.38828,0.0933 0.65617,0.25885 0.45752,0.28595 0.71337,0.76153 0.25585,0.47558 0.25585,1.12874 z m -0.62307,-0.009 q 0,-0.52674 -0.18361,-0.88794 -0.18361,-0.3612 -0.54782,-0.56889 -0.26487,-0.1505 -0.56286,-0.20769 -0.29799,-0.0602 -0.71337,-0.0602 h -0.55985 v 3.45847 h 0.55985 q 0.43043,0 0.74949,-0.0632 0.32207,-0.0632 0.58995,-0.23478 0.33411,-0.21371 0.49966,-0.56286 0.16856,-0.34916 0.16856,-0.8729 z"
                 id="path3623" />
              <path
                 style="color:#000000;fill:#f6f6f6;stroke:none;-inkscape-stroke:none"
                 d="m -155.38086,-189.08008 v 5.14649 h 1.46484 c 0.42577,0 0.77601,-0.0274 1.06446,-0.0918 0.2859,-0.0635 0.55098,-0.16936 0.78906,-0.31641 h 0.002 c 0.34589,-0.21412 0.62341,-0.51853 0.82422,-0.89453 v -0.002 c 0.20509,-0.38092 0.3086,-0.8083 0.3086,-1.26367 0,-0.47894 -0.0962,-0.91403 -0.29688,-1.28711 -0.19662,-0.36548 -0.47835,-0.66689 -0.83008,-0.88672 h -0.002 c -0.21553,-0.13319 -0.46534,-0.23026 -0.75,-0.29883 h -0.002 c -0.29974,-0.0747 -0.66618,-0.10547 -1.11914,-0.10547 z m 1.26172,1.17774 h 0.22656 c 0.26083,0 0.47923,0.0186 0.64844,0.0527 h 0.002 c 0.16349,0.0314 0.31526,0.0891 0.46094,0.17188 0.19081,0.1091 0.32246,0.24564 0.41602,0.42968 0.0928,0.18249 0.14648,0.42388 0.14648,0.73633 0,0.31342 -0.0507,0.55447 -0.13477,0.72852 v 0.002 c -0.0845,0.17815 -0.20449,0.31422 -0.3789,0.42578 -0.14317,0.0917 -0.29867,0.15298 -0.47461,0.1875 -0.1847,0.0366 -0.4149,0.0566 -0.68555,0.0566 h -0.22656 z"
                 id="path3625" />
            </g>
            <g
               id="path3614">
              <path
                 style="color:#000000;stroke:none;-inkscape-stroke:none"
                 d="m -148.24559,-187.01115 h -0.0301 q -0.12642,-0.0301 -0.24682,-0.0421 -0.11739,-0.0151 -0.27993,-0.0151 -0.26187,0 -0.50568,0.11739 -0.24381,0.11437 -0.46955,0.29798 v 2.38692 h -0.56588 v -3.36215 h 0.56588 v 0.49665 q 0.33711,-0.2709 0.59296,-0.38227 0.25886,-0.11438 0.52675,-0.11438 0.14749,0 0.21371,0.009 0.0662,0.006 0.19866,0.0271 z"
                 id="path3629" />
              <path
                 style="color:#000000;fill:#f6f6f6;stroke:none;-inkscape-stroke:none"
                 d="m -150.67578,-187.96094 v 4.02735 h 1.23047 v -2.53907 c 0.092,-0.0646 0.18477,-0.13144 0.27929,-0.17578 v -0.002 h 0.002 c 0.12054,-0.058 0.23652,-0.084 0.36133,-0.084 0.098,-1e-5 0.17931,0.004 0.23828,0.0117 h 0.004 0.006 c 0.0644,0.006 0.13037,0.0183 0.20117,0.0352 l 0.0391,0.01 h 0.40234 v -0.33399 -0.86523 l -0.28125,-0.0449 c -0.0855,-0.0136 -0.14861,-0.0218 -0.20508,-0.0273 -5.7e-4,-8e-5 -0.001,8e-5 -0.002,0 -0.0763,-0.0102 -0.1535,-0.0117 -0.25781,-0.0117 -0.22601,0 -0.45068,0.0492 -0.66211,0.14258 -0.04,0.0174 -0.0845,0.061 -0.125,0.082 v -0.22461 z"
                 id="path3631" />
            </g>
            <g
               id="path3616">
              <path
                 style="color:#000000;stroke:none;-inkscape-stroke:none"
                 d="m -144.84733,-185.94562 q 0,0.82172 -0.42139,1.2973 -0.4214,0.47558 -1.12875,0.47558 -0.71336,0 -1.13476,-0.47558 -0.41839,-0.47558 -0.41839,-1.2973 0,-0.82173 0.41839,-1.2973 0.4214,-0.47859 1.13476,-0.47859 0.70735,0 1.12875,0.47859 0.42139,0.47557 0.42139,1.2973 z m -0.58393,0 q 0,-0.65317 -0.25585,-0.96922 -0.25585,-0.31905 -0.71036,-0.31905 -0.46052,0 -0.71637,0.31905 -0.25284,0.31605 -0.25284,0.96922 0,0.63209 0.25585,0.96018 0.25585,0.32508 0.71336,0.32508 0.4515,0 0.70735,-0.32207 0.25886,-0.32508 0.25886,-0.96319 z"
                 id="path3635" />
              <path
                 style="color:#000000;fill:#f6f6f6;stroke:none;-inkscape-stroke:none"
                 d="m -146.39844,-188.05469 c -0.55007,0 -1.04222,0.20277 -1.38476,0.5918 -0.34178,0.38848 -0.5,0.91322 -0.5,1.51758 0,0.60435 0.15822,1.12909 0.5,1.51758 h 0.002 c 0.34281,0.38688 0.83321,0.58789 1.38281,0.58789 0.54622,0 1.03662,-0.2016 1.37891,-0.58789 0.34408,-0.38833 0.50586,-0.91283 0.50586,-1.51758 0,-0.60476 -0.16178,-1.12926 -0.50586,-1.51758 -0.34203,-0.38844 -0.83221,-0.5918 -1.37891,-0.5918 z m 0,1.1543 c 0.22506,0 0.34084,0.0558 0.45117,0.19336 v 0.002 h 0.002 c 0.1,0.12347 0.18164,0.36782 0.18164,0.75977 0,0.38036 -0.0811,0.62223 -0.1875,0.75586 -0.11121,0.13998 -0.22548,0.19531 -0.44727,0.19531 -0.22492,0 -0.33887,-0.056 -0.44922,-0.19531 v -0.002 c -0.10637,-0.13709 -0.18554,-0.37837 -0.18554,-0.7539 0,-0.39247 0.0811,-0.63843 0.17968,-0.76172 0.10955,-0.1366 0.225,-0.19336 0.45508,-0.19336 z"
                 id="path3637" />
            </g>
            <g
               id="path3618">
              <path
                 style="color:#000000;stroke:none;-inkscape-stroke:none"
                 d="m -141.01261,-185.98776 q 0,0.40936 -0.11739,0.74948 -0.11739,0.33712 -0.3311,0.5719 -0.19866,0.22274 -0.46956,0.34615 -0.26788,0.1204 -0.56888,0.1204 -0.26187,0 -0.47558,-0.0572 -0.2107,-0.0572 -0.43043,-0.17759 v 1.40867 h -0.56587 v -4.60226 h 0.56587 v 0.35217 q 0.22575,-0.18963 0.50568,-0.31605 0.28294,-0.12943 0.602,-0.12943 0.60801,0 0.94513,0.46053 0.34013,0.45751 0.34013,1.27322 z m -0.58394,0.0151 q 0,-0.60802 -0.20769,-0.90902 -0.20769,-0.30099 -0.63811,-0.30099 -0.24381,0 -0.49063,0.10535 -0.24682,0.10535 -0.47257,0.27691 v 1.90532 q 0.2408,0.10836 0.41237,0.14749 0.17458,0.0391 0.39431,0.0391 0.47257,0 0.73744,-0.31906 0.26488,-0.31906 0.26488,-0.94513 z"
                 id="path3641" />
              <path
                 style="color:#000000;fill:#f6f6f6;stroke:none;-inkscape-stroke:none"
                 d="m -142.29883,-188.05469 c -0.25775,0 -0.50853,0.0542 -0.74023,0.16016 -0.0119,0.005 -0.0214,0.014 -0.0332,0.0195 v -0.0859 h -1.23242 v 5.26758 h 1.23242 v -1.24609 c 0.003,9e-4 0.007,0.003 0.01,0.004 h 0.002 c 0.1753,0.0469 0.36172,0.0684 0.56055,0.0684 0.24508,0 0.48394,-0.049 0.70508,-0.14843 l 0.002,-0.002 c 0.22145,-0.10088 0.41792,-0.24591 0.58008,-0.42773 0.17404,-0.19214 0.30793,-0.42367 0.39844,-0.6836 0.0917,-0.2657 0.13476,-0.55462 0.13476,-0.85937 0,-0.58938 -0.12369,-1.08785 -0.40625,-1.46875 -0.28118,-0.3831 -0.72408,-0.59766 -1.21289,-0.59766 z m -0.14258,1.20508 c 0.2093,0 0.28592,0.0441 0.36329,0.15625 0.0789,0.11437 0.14843,0.35329 0.14843,0.7207 0,0.3704 -0.0793,0.60211 -0.1875,0.73243 -0.11439,0.13779 -0.24234,0.19921 -0.48242,0.19921 -0.12673,0 -0.23301,-0.0117 -0.32031,-0.0312 -0.0358,-0.008 -0.10307,-0.0377 -0.15235,-0.0547 v -1.48633 c 0.089,-0.0574 0.17662,-0.11855 0.26954,-0.1582 0.12812,-0.0547 0.24676,-0.0781 0.36132,-0.0781 z m 1,1.48242 c -0.002,0.006 -0.002,0.0138 -0.004,0.0195 -10e-4,0.004 -0.004,0.006 -0.006,0.01 0.003,-0.01 0.007,-0.0195 0.01,-0.0293 z"
                 id="path3643" />
            </g>
          </g>
        </g>
      </g>
      <g
         id="g1903">
        <g
           id="g1911"
           style="opacity:1">
          <g
             id="g950"
             transform="matrix(0.73944086,0,0,0.73944087,87.793915,538.68903)"
             style="opacity:0.411335;fill:#f2f2ff;fill-opacity:0">
            <rect
               style="fill:#f2f2ff;fill-opacity:0;stroke-width:0.700001;stroke-linecap:round;stroke-linejoin:round"
               id="rect948"
               width="16.933332"
               height="16.933332"
               x="-229.9162"
               y="-214.93423"
               ry="0" />
          </g>
          <path
             style="opacity:1;fill:#ffffff;fill-opacity:1;stroke:none;stroke-width:0.18407px;stroke-linecap:butt;stroke-linejoin:miter;stroke-opacity:1"
             d="m -79.697859,388.95105 c 0.564379,0.55975 3.466927,1.47275 3.545158,1.05551 1.819624,-2.40075 -0.416121,-4.25021 -1.19194,-2.04408 0.882404,-3.00347 -1.572656,-4.82379 -1.53928,-0.67435 -2.181555,-4.84258 -1.88077,0.14516 -0.813938,1.66293 z"
             id="path867"
             sodipodi:nodetypes="ccccc" />
          <path
             style="opacity:1;fill:#ffffff;fill-opacity:1;stroke:none;stroke-width:0.18407px;stroke-linecap:butt;stroke-linejoin:miter;stroke-opacity:1"
             d="m -75.981159,386.46662 c 0.564379,0.16434 3.466927,-0.9562 3.545158,-1.42825 1.819624,-3.67559 -0.416121,-3.95868 -1.19194,-1.209 0.882404,-3.62169 -1.572656,-3.72197 -1.53928,0.40408 -2.181555,-3.31417 -1.88077,1.46284 -0.813938,2.23318 z"
             id="path1905"
             sodipodi:nodetypes="ccccc" />
        </g>
        <g
           id="g2195"
           transform="translate(12.521199)"
           style="opacity:1">
          <g
             id="g2189"
             transform="matrix(0.73944086,0,0,0.73944087,87.793915,538.68903)"
             style="opacity:0.411335;fill:#f2f2ff;fill-opacity:0">
            <rect
               style="fill:#f2f2ff;fill-opacity:0;stroke-width:0.700001;stroke-linecap:round;stroke-linejoin:round"
               id="rect2187"
               width="16.933332"
               height="16.933332"
               x="-229.9162"
               y="-214.93423"
               ry="0" />
          </g>
          <path
             style="opacity:1;fill:#ffffff;fill-opacity:0.85872;stroke:none;stroke-width:0.24707px;stroke-linecap:butt;stroke-linejoin:miter;stroke-opacity:1"
             d="m -77.759325,386.96967 c 0.757544,1.02583 4.65352,3.66297 4.758526,3.14096 2.442411,-2.33745 -0.558542,-5.90726 -1.599894,-3.32338 1.184416,-3.60228 -1.75735,-7.0334 -2.419679,-1.91896 -2.928216,-7.56101 -2.17092,-0.4547 -0.738953,2.1014 z"
             id="path2191"
             sodipodi:nodetypes="cccccc" />
          <path
             style="opacity:1;fill:#ffffff;fill-opacity:0.578366;stroke:none;stroke-width:0.24707px;stroke-linecap:butt;stroke-linejoin:miter;stroke-opacity:1"
             d="m -78.251602,389.97599 c 0.757544,0.008 4.65352,-2.5864 4.758527,-3.24943 2.44241,-5.61744 0.178048,-5.24558 -0.863304,-1.26323 -0.229838,-4.66253 -2.847505,-4.31643 -2.802706,1.20926 -2.928216,-3.62861 -2.524484,2.67035 -1.092517,3.30341 z"
             id="path2193"
             sodipodi:nodetypes="cccccc" />
        </g>
        <g
           id="g2313"
           transform="translate(25.042397)">
          <g
             id="g2307"
             transform="matrix(0.73944086,0,0,0.73944087,87.793915,538.68903)"
             style="opacity:1;fill:#f2f2ff;fill-opacity:0">
            <rect
               style="fill:#f2f2ff;fill-opacity:0;stroke-width:0.700001;stroke-linecap:round;stroke-linejoin:round"
               id="rect2305"
               width="16.933332"
               height="16.933332"
               x="-229.9162"
               y="-214.93423"
               ry="0" />
          </g>
          <path
             style="opacity:1;fill:#ffffff;fill-opacity:1;stroke:none;stroke-width:0.274104px;stroke-linecap:butt;stroke-linejoin:miter;stroke-opacity:1"
             d="m -78.502905,389.40048 c 0.840434,0.52033 5.162709,0.26913 5.279205,-0.39562 2.709658,-4.58484 -0.619659,-6.09818 -1.774955,-2.38243 1.314015,-4.96225 -2.341891,-6.31049 -2.29219,-0.14996 -3.248621,-6.00057 -2.800713,1.25991 -1.21206,2.92802 z"
             id="path2309"
             sodipodi:nodetypes="ccccc" />
        </g>
      </g>
    </g>
  </g>
</svg>
