<?xml version="1.0" encoding="UTF-8" standalone="no"?>
<!-- Created with Inkscape (http://www.inkscape.org/) -->

<svg
   width="23.283333mm"
   height="5.8208337mm"
   viewBox="0 0 23.283332 5.8208338"
   version="1.1"
   id="svg6460"
   inkscape:version="1.1.1 (3bf5ae0d25, 2021-09-20)"
   sodipodi:docname="icons_small.svg"
   xmlns:inkscape="http://www.inkscape.org/namespaces/inkscape"
   xmlns:sodipodi="http://sodipodi.sourceforge.net/DTD/sodipodi-0.dtd"
   xmlns="http://www.w3.org/2000/svg"
   xmlns:svg="http://www.w3.org/2000/svg">
  <sodipodi:namedview
     id="namedview6462"
     pagecolor="#505050"
     bordercolor="#ffffff"
     borderopacity="1"
     inkscape:pageshadow="0"
     inkscape:pageopacity="0"
     inkscape:pagecheckerboard="1"
     inkscape:document-units="mm"
     showgrid="false"
     inkscape:snap-bbox="true"
     inkscape:snap-bbox-midpoints="true"
     inkscape:zoom="6.1279413"
     inkscape:cx="39.73602"
     inkscape:cy="17.216222"
     inkscape:window-width="1366"
     inkscape:window-height="705"
     inkscape:window-x="-8"
     inkscape:window-y="-8"
     inkscape:window-maximized="1"
     inkscape:current-layer="g7651"
     inkscape:snap-global="true"
     inkscape:bbox-nodes="true"
     inkscape:snap-nodes="false"
     inkscape:snap-others="false" />
  <defs
     id="defs6457" />
  <g
     inkscape:label="Capa 1"
     inkscape:groupmode="layer"
     id="layer1"
     transform="translate(-117.9688,-182.15421)">
    <g
       id="g7651">
      <g
         id="g17352"
         transform="matrix(0.6875,0,0,0.68749847,36.865252,56.92347)"
         style="stroke-width:1.45455">
        <rect
           style="fill:#000035;fill-opacity:0;stroke-width:0.727272;stroke-linecap:round;stroke-linejoin:round"
           id="rect7044"
           width="8.4666672"
           height="8.4666672"
           x="117.9688"
           y="182.15421"
           ry="0" />
        <path
           id="path1139"
           style="fill:#ebebeb;fill-opacity:1;stroke-width:0.727272;stroke-linecap:round;stroke-linejoin:round"
           d="m 122.34071,183.28388 c -0.38807,-0.001 -0.8294,0.0246 -0.89982,0.0706 -0.0708,0.0728 -0.10365,0.73548 -0.15328,0.90707 -0.18719,0.0761 -0.36355,0.17501 -0.52478,0.29438 -0.16692,-0.0362 -0.79402,-0.34979 -0.89629,-0.32648 -0.13567,0.064 -0.80142,1.1411 -0.76681,1.25724 0.0442,0.12022 0.44848,0.36284 0.73667,0.58558 -0.036,0.21187 -0.023,0.41964 0,0.61655 -0.13652,0.13069 -0.70154,0.48284 -0.73102,0.57761 -0.0105,0.14566 0.62126,1.2416 0.74256,1.27068 0.13064,0.0232 0.55473,-0.19708 0.89959,-0.32672 0.16493,0.11949 0.34521,0.21775 0.53632,0.29234 0.0518,0.14923 0.0843,0.84328 0.15704,0.91799 0.12518,0.0816 1.42243,0.10048 1.50912,0.0135 0.0875,-0.0992 0.10139,-0.57716 0.15986,-0.93257 0.19349,-0.0782 0.37133,-0.18037 0.53255,-0.30031 0.34734,0.12882 0.78173,0.35556 0.91419,0.33196 0.1213,-0.029 0.75304,-1.12503 0.74255,-1.27068 -0.0309,-0.0995 -0.65177,-0.48223 -0.7475,-0.59491 0.0305,-0.19821 0.019,-0.39446 -2.7e-4,-0.57876 0.28899,-0.22622 0.70813,-0.476 0.75315,-0.59856 0.0346,-0.11614 -0.6309,-1.19296 -0.76657,-1.25701 -0.10261,-0.0234 -0.73353,0.2922 -0.89794,0.32671 -0.16331,-0.12109 -0.34216,-0.22119 -0.53208,-0.29779 -0.0569,-0.35418 -0.0714,-0.82301 -0.15798,-0.92119 -0.0379,-0.038 -0.30747,-0.056 -0.60931,-0.0572 z m -0.13867,1.90498 a 1.2395057,1.1986707 0 0 1 1.23956,1.19872 1.2395057,1.1986707 0 0 1 -1.23956,1.19872 1.2395057,1.1986707 0 0 1 -1.23932,-1.19872 1.2395057,1.1986707 0 0 1 1.23932,-1.19872 z" />
      </g>
      <g
         id="g17247"
         transform="matrix(0.58787978,0,0,0.57597251,60.715268,73.752066)"
         style="stroke-width:1.20296;stroke-miterlimit:4;stroke-dasharray:none" />
      <g
         id="g17701"
         transform="matrix(0.6875,0,0,0.68749847,36.986782,52.856787)"
         style="stroke-width:1.45455">
        <path
           style="fill:none;stroke:#ffffff;stroke-width:1.74976;stroke-linecap:round;stroke-linejoin:round;stroke-miterlimit:4;stroke-dasharray:none;stroke-opacity:1"
           d="m 142.82057,199.37338 c 0.97697,0 8.06003,0 8.06003,0 l 1.95395,-4.09108 h -8.1211 z"
           id="path16751"
           transform="matrix(0.58787977,0,0,0.57597252,60.538498,79.667253)" />
        <path
           style="fill:none;stroke:#ffffff;stroke-width:1.74976;stroke-linecap:round;stroke-linejoin:round;stroke-miterlimit:4;stroke-dasharray:none;stroke-opacity:1"
           d="m 142.82057,199.37338 -0.0611,-7.57155 2.99198,-0.0611 0.91591,1.28228 h 4.2132 l 0.12212,2.13713"
           id="path16805"
           transform="matrix(0.58787977,0,0,0.57597252,60.538498,79.667253)" />
        <path
           style="fill:#ebebeb;fill-opacity:1;stroke:#ffffff;stroke-width:3.84824;stroke-linecap:round;stroke-linejoin:round;stroke-miterlimit:4;stroke-dasharray:none;stroke-opacity:1"
           d="m 103.26908,22.704678 c 0.0426,-0.111132 0.68244,-1.487548 1.42176,-3.058702 l 1.34424,-2.856645 h 7.46741 7.46741 l -1.48182,3.029003 -1.48181,3.029003 -7.40737,0.0297 c -7.01588,0.02813 -7.40326,0.01902 -7.32982,-0.172359 z"
           id="path17479"
           transform="matrix(0.26458333,0,0,0.26458333,117.79203,188.06939)" />
        <rect
           style="fill:#000035;fill-opacity:0;stroke-width:0.727272;stroke-linecap:round;stroke-linejoin:round"
           id="rect17251"
           width="8.4666672"
           height="8.4666672"
           x="143.19203"
           y="188.06941"
           ry="0" />
      </g>
      <g
         id="g25614">
        <g
           id="g18446"
           transform="matrix(0.6875,0,0,0.68749847,42.686086,56.92346)"
           style="fill:#ebebeb;fill-opacity:0;stroke-width:1.45455">
          <rect
             style="fill:#ebebeb;fill-opacity:0;stroke-width:0.727272;stroke-linecap:round;stroke-linejoin:round"
             id="rect18444"
             width="8.4666672"
             height="8.4666672"
             x="126.43547"
             y="182.15422"
             ry="0" />
        </g>
        <g
           id="g25480"
           transform="translate(10.634041,-16.447989)">
          <path
             id="rect17821"
             style="color:#000000;fill:#ffffff;stroke-width:1;stroke-linecap:round;stroke-linejoin:round;-inkscape-stroke:none"
             d="m 122.06622,198.8829 c -0.42622,0 -1.06132,0.003 -1.59163,0.004 -0.26516,6.6e-4 -0.5051,0.002 -0.67748,0.002 -0.0862,-2.4e-4 -0.1565,-5.5e-4 -0.2036,-0.002 -0.0236,-3.4e-4 -0.0407,-0.002 -0.0506,-0.002 0.002,1.8e-4 10e-4,0.001 0.006,0.002 -0.13081,-0.0222 -0.24946,0.0803 -0.2465,0.21291 0.01,0.41916 0,2.56324 0,3.84937 1.8e-4,0.11657 0.0948,0.21094 0.21136,0.21084 h 2.14747 c 0.13351,-0.003 0.15866,-0.37307 0,-0.42168 h -1.93663 c 9.2e-4,-1.21479 0.007,-2.86034 0,-3.42769 0.026,1.3e-4 0.0422,-9e-5 0.0723,0 0.17402,5e-4 0.41205,6.6e-4 0.67748,0 0.50286,-0.001 1.08554,-0.004 1.50792,-0.004 0.22227,0.20833 0.46922,0.44245 0.70693,0.66973 v 0.3462 c 0.17754,-0.10528 0.25592,-0.0881 0.4114,0 l 0.0108,-0.43767 c 1.2e-4,-0.0575 -0.0232,-0.11254 -0.0646,-0.15245 -0.27676,-0.26488 -0.57882,-0.55019 -0.83612,-0.79064 -0.0388,-0.0373 -0.0904,-0.0584 -0.14418,-0.0589 z m -2.50114,0.008 c 0.004,9.2e-4 0.009,0.002 0.009,0.002 -10e-5,-3e-5 0.0114,0.004 0.0207,0.008 -0.01,-0.004 -0.0198,-0.007 -0.03,-0.01 z m 0.0372,0.0129 c 5.4e-4,1.9e-4 0.003,0.001 0.003,0.001 0,0 0.003,0.003 0.004,0.003 -0.002,-0.001 -0.004,-0.003 -0.007,-0.004 z"
             sodipodi:nodetypes="sccccccccccccccccccccccscccccsccs" />
          <path
             style="fill:none;stroke:#ffffff;stroke-width:0.361976;stroke-linecap:round;stroke-linejoin:round;stroke-miterlimit:4;stroke-dasharray:none;stroke-opacity:1"
             d="m 120.14554,199.85017 h 1.6802"
             id="path17958" />
          <path
             style="fill:none;stroke:#ffffff;stroke-width:0.361976;stroke-linecap:round;stroke-linejoin:round;stroke-miterlimit:4;stroke-dasharray:none;stroke-opacity:1"
             d="m 120.15411,200.61859 h 2.00167"
             id="path18238" />
          <path
             style="fill:none;stroke:#ffffff;stroke-width:0.361976;stroke-linecap:round;stroke-linejoin:round;stroke-miterlimit:4;stroke-dasharray:none;stroke-opacity:1"
             d="m 120.13229,201.38701 h 1.31961"
             id="path18240"
             sodipodi:nodetypes="cc" />
          <path
             style="fill:none;stroke:#ffffff;stroke-width:0.320589;stroke-linecap:round;stroke-linejoin:round;stroke-miterlimit:4;stroke-dasharray:none;stroke-opacity:1"
             d="m 120.12,202.20752 h 0.71891"
             id="path18242"
             sodipodi:nodetypes="cc" />
          <path
             style="fill:#ebebeb;fill-opacity:1;stroke:none;stroke-width:1;stroke-linecap:round;stroke-linejoin:round;stroke-miterlimit:4;stroke-dasharray:none;stroke-opacity:1"
             d="m 122.11583,204.08842 c -0.0719,-0.10206 0.0561,-1.0363 -0.0745,-1.65083 -0.11378,-0.036 -0.75126,0.01 -0.80553,-0.10883 -0.032,-0.10232 1.51841,-1.69764 1.66314,-1.69285 0.58952,0.44566 1.20484,1.06862 1.5724,1.72914 -0.11809,0.11372 -0.71018,-0.016 -0.77558,0.0519 -0.0442,0.34601 0.0965,1.50231 6e-4,1.65015 -0.12805,0.11195 -1.5061,0.0814 -1.58052,0.0213 z"
             id="path18874"
             sodipodi:nodetypes="cccccccc" />
        </g>
      </g>
      <g
         id="g25603">
        <g
           id="g25472"
           transform="translate(11.865738,-16.447987)">
          <path
             id="path24620"
             style="color:#000000;fill:#ffffff;stroke-width:1;stroke-linecap:round;stroke-linejoin:round;-inkscape-stroke:none"
             d="m 115.0137,198.8829 c -0.42622,0 -1.06133,0.003 -1.59164,0.004 -0.26516,6.6e-4 -0.5051,0.002 -0.67748,0.002 -0.0862,-2.4e-4 -0.1565,-5.5e-4 -0.2036,-0.002 -0.0236,-3.4e-4 -0.0407,-0.002 -0.0506,-0.002 0.002,1.8e-4 0.001,0.001 0.006,0.002 -0.13081,-0.0222 -0.24946,0.0803 -0.2465,0.21291 0.01,0.41916 0,2.56324 0,3.84937 1.8e-4,0.11657 0.0948,0.21094 0.21136,0.21084 h 1.7481 c 0.1335,-0.003 -0.0788,-0.37307 -0.23747,-0.42168 h -1.29979 c 9.2e-4,-1.21479 0.007,-2.86034 0,-3.42769 0.026,1.3e-4 0.0422,-9e-5 0.0723,0 0.17402,5e-4 0.41205,6.6e-4 0.67748,0 0.50286,-0.001 1.08554,-0.004 1.50792,-0.004 0.22227,0.20833 0.46922,0.44245 0.70693,0.66973 v 0.25461 c 0.01,0.11939 0.42461,0.13508 0.41141,0 l 0.0108,-0.34608 c 1.2e-4,-0.0575 -0.0232,-0.11254 -0.0646,-0.15245 -0.27676,-0.26488 -0.57882,-0.55019 -0.83612,-0.79064 -0.0388,-0.0373 -0.0904,-0.0584 -0.14418,-0.0589 z m -2.50114,0.008 c 0.004,9.2e-4 0.009,0.002 0.009,0.002 -10e-5,-3e-5 0.0114,0.004 0.0207,0.008 -0.01,-0.004 -0.0198,-0.007 -0.03,-0.01 z m 0.0372,0.0129 c 5.4e-4,1.9e-4 0.003,0.001 0.003,0.001 0,0 0.003,0.003 0.004,0.003 -0.002,-0.001 -0.004,-0.003 -0.007,-0.004 z"
             sodipodi:nodetypes="sccccccccccccccccccccccscccccsccs" />
          <path
             style="fill:none;stroke:#ffffff;stroke-width:0.361976;stroke-linecap:round;stroke-linejoin:round;stroke-miterlimit:4;stroke-dasharray:none;stroke-opacity:1"
             d="m 113.09301,199.85017 h 1.6802"
             id="path24622" />
          <path
             style="fill:none;stroke:#ffffff;stroke-width:0.361976;stroke-linecap:round;stroke-linejoin:round;stroke-miterlimit:4;stroke-dasharray:none;stroke-opacity:1"
             d="m 113.10158,200.61859 h 1.28926"
             id="path24624"
             sodipodi:nodetypes="cc" />
          <path
             style="fill:none;stroke:#ffffff;stroke-width:0.361976;stroke-linecap:round;stroke-linejoin:round;stroke-miterlimit:4;stroke-dasharray:none;stroke-opacity:1"
             d="m 113.07976,201.38701 h 1.22399"
             id="path24626"
             sodipodi:nodetypes="cc" />
          <path
             style="fill:none;stroke:#ffffff;stroke-width:0.320589;stroke-linecap:round;stroke-linejoin:round;stroke-miterlimit:4;stroke-dasharray:none;stroke-opacity:1"
             d="m 113.06747,202.20752 h 0.72415"
             id="path24628"
             sodipodi:nodetypes="cc" />
          <path
             style="fill:#ebebeb;fill-opacity:1;stroke:none;stroke-width:1;stroke-linecap:round;stroke-linejoin:round;stroke-miterlimit:4;stroke-dasharray:none;stroke-opacity:1"
             d="m 116.53829,200.68979 c 0.0719,0.10206 -0.0561,1.0363 0.0745,1.65083 0.11378,0.036 0.75126,-0.01 0.80553,0.10883 0.032,0.10232 -1.51841,1.69764 -1.66314,1.69285 -0.58952,-0.44566 -1.20484,-1.06862 -1.5724,-1.72914 0.11809,-0.11372 0.71018,0.016 0.77558,-0.0519 0.0442,-0.34601 -0.0965,-1.50231 -6e-4,-1.65015 0.12805,-0.11195 1.5061,-0.0814 1.58052,-0.0213 z"
             id="path24630"
             sodipodi:nodetypes="cccccccc" />
        </g>
        <g
           id="g25484"
           transform="matrix(0.6875,0,0,0.68749847,36.865252,56.92346)"
           style="fill:#ebebeb;fill-opacity:0;stroke-width:1.45455">
          <rect
             style="fill:#ebebeb;fill-opacity:0;stroke-width:0.727272;stroke-linecap:round;stroke-linejoin:round"
             id="rect25482"
             width="8.4666672"
             height="8.4666672"
             x="126.43547"
             y="182.15422"
             ry="0" />
        </g>
      </g>
    </g>
  </g>
</svg>
