<?xml version="1.0" encoding="UTF-8" standalone="no"?>
<!-- Created with Inkscape (http://www.inkscape.org/) -->

<svg
   width="84.666664mm"
   height="16.933338mm"
   viewBox="0 0 84.666662 16.933338"
   version="1.1"
   id="svg11372"
   inkscape:version="1.1.1 (3bf5ae0d25, 2021-09-20)"
   sodipodi:docname="icons.svg"
   xmlns:inkscape="http://www.inkscape.org/namespaces/inkscape"
   xmlns:sodipodi="http://sodipodi.sourceforge.net/DTD/sodipodi-0.dtd"
   xmlns="http://www.w3.org/2000/svg"
   xmlns:svg="http://www.w3.org/2000/svg">
  <sodipodi:namedview
     id="namedview11374"
     pagecolor="#505050"
     bordercolor="#ffffff"
     borderopacity="1"
     inkscape:pageshadow="0"
     inkscape:pageopacity="0"
     inkscape:pagecheckerboard="1"
     inkscape:document-units="mm"
     showgrid="false"
     inkscape:snap-global="false"
     inkscape:snap-bbox="true"
     inkscape:snap-bbox-midpoints="true"
     inkscape:zoom="1.1400399"
     inkscape:cx="154.81914"
     inkscape:cy="19.736151"
     inkscape:window-width="1366"
     inkscape:window-height="705"
     inkscape:window-x="-8"
     inkscape:window-y="-8"
     inkscape:window-maximized="1"
     inkscape:current-layer="g4439" />
  <defs
     id="defs11369">
    <marker
       style="overflow:visible"
       id="Arrow1Lstart"
       refX="0"
       refY="0"
       orient="auto"
       inkscape:stockid="Arrow1Lstart"
       inkscape:isstock="true">
      <path
         transform="matrix(0.8,0,0,0.8,10,0)"
         style="fill:context-stroke;fill-rule:evenodd;stroke:context-stroke;stroke-width:1pt"
         d="M 0,0 5,-5 -12.5,0 5,5 Z"
         id="path27638" />
    </marker>
  </defs>
  <g
     inkscape:label="Capa 1"
     inkscape:groupmode="layer"
     id="layer1"
     transform="translate(263.78288,214.93423)">
    <g
       id="g12135"
       transform="matrix(0.20153996,0,0,0.20153996,-221.84334,-171.6164)"
       style="stroke-width:4.96185">
      <rect
         style="fill:#21262e;fill-opacity:0;stroke-width:3.47327;stroke-linecap:round;stroke-linejoin:round"
         id="rect11620"
         width="84.01973"
         height="84.01973"
         x="-208.09538"
         y="-214.93422"
         ry="0" />
      <g
         id="g4439"
         transform="matrix(1.0588337,0,0,1.0588337,-207.21281,-225.77539)"
         inkscape:export-filename="C:\Users\ab-cb\Documents\GitHub\terra-brush-scatterer\addons\terra_brush\mockup_terraBrushUI.svg.2023_11_03_19_39_16.0.png"
         inkscape:export-xdpi="126"
         inkscape:export-ydpi="126"
         style="stroke-width:4.68612">
        <rect
           style="fill:none;fill-opacity:1;stroke:#f2f2f2;stroke-width:3.74888;stroke-linecap:round;stroke-linejoin:round;stroke-miterlimit:4;stroke-dasharray:none;stroke-opacity:1"
           id="rect4427"
           width="13.677631"
           height="13.677631"
           x="21.268234"
           y="-53.07407"
           transform="scale(1,-1)" />
        <rect
           style="fill:none;fill-opacity:1;stroke:#f2f2f2;stroke-width:3.74888;stroke-linecap:round;stroke-linejoin:round;stroke-miterlimit:4;stroke-dasharray:none;stroke-opacity:1"
           id="rect4429"
           width="13.677631"
           height="13.677631"
           x="21.268234"
           y="-33.66378"
           transform="scale(1,-1)" />
        <rect
           style="fill:none;fill-opacity:1;stroke:#f2f2f2;stroke-width:3.74888;stroke-linecap:round;stroke-linejoin:round;stroke-miterlimit:4;stroke-dasharray:none;stroke-opacity:1"
           id="rect4431"
           width="13.677631"
           height="13.677631"
           x="40.678524"
           y="-53.07407"
           transform="scale(1,-1)" />
        <g
           aria-label=" Terrain  Builder"
           id="text4437"
           style="font-weight:bold;font-size:10.5833px;line-height:1.25;-inkscape-font-specification:'sans-serif, Bold';fill:#f2f2f2;stroke-width:1.23986">
          <path
             d="m 24.563919,63.162302 h -2.402947 v 6.20632 h -1.984369 v -6.20632 h -2.402946 v -1.488276 h 6.790262 z"
             id="path12566"
             style="stroke-width:1.23986" />
          <path
             d="m 31.369683,66.810647 h -4.258125 q 0.04134,0.682126 0.516763,1.04386 0.480589,0.361734 1.410762,0.361734 0.58911,0 1.142046,-0.211873 0.552936,-0.211872 0.873329,-0.454751 h 0.206705 v 1.493444 q -0.630451,0.253214 -1.188554,0.366902 -0.558104,0.113688 -1.235063,0.113688 -1.746658,0 -2.676831,-0.78548 -0.930173,-0.785479 -0.930173,-2.237582 0,-1.4366 0.878497,-2.273756 0.883664,-0.842323 2.418449,-0.842323 1.41593,0 2.129062,0.7183 0.713133,0.713133 0.713133,2.056716 z m -1.85001,-1.09037 q -0.0155,-0.583942 -0.289388,-0.878496 -0.273884,-0.294555 -0.852658,-0.294555 -0.537433,0 -0.883664,0.279052 -0.346231,0.279052 -0.387572,0.893999 z"
             id="path12568"
             style="stroke-width:1.23986" />
          <path
             d="m 36.888708,65.337873 h -0.165364 q -0.118855,-0.04134 -0.382404,-0.06201 -0.263549,-0.02067 -0.439249,-0.02067 -0.397907,0 -0.702797,0.05168 -0.30489,0.05168 -0.656288,0.175699 v 3.886056 H 32.68226 v -5.803245 h 1.860346 v 0.852658 q 0.614947,-0.527098 1.069698,-0.697629 0.454751,-0.1757 0.837156,-0.1757 0.09819,0 0.222208,0.0052 0.124023,0.0052 0.21704,0.0155 z"
             id="path12570"
             style="stroke-width:1.23986" />
          <path
             d="m 42.149351,65.337873 h -0.165364 q -0.118855,-0.04134 -0.382404,-0.06201 -0.263549,-0.02067 -0.439249,-0.02067 -0.397907,0 -0.702797,0.05168 -0.30489,0.05168 -0.656288,0.175699 v 3.886056 h -1.860346 v -5.803245 h 1.860346 v 0.852658 q 0.614947,-0.527098 1.069698,-0.697629 0.454751,-0.1757 0.837156,-0.1757 0.09819,0 0.222208,0.0052 0.124023,0.0052 0.21704,0.0155 z"
             id="path12572"
             style="stroke-width:1.23986" />
          <path
             d="m 46.717534,67.854507 v -1.209224 q -0.377237,0.031 -0.816485,0.08785 -0.439248,0.05168 -0.666624,0.124023 -0.279052,0.08785 -0.428913,0.258382 -0.144693,0.165364 -0.144693,0.439248 0,0.180867 0.03101,0.294555 0.03101,0.113687 0.155029,0.21704 0.118856,0.103352 0.28422,0.155029 0.165364,0.04651 0.516762,0.04651 0.279052,0 0.563272,-0.113687 0.289387,-0.113688 0.506427,-0.299723 z m 0,0.899167 q -0.149861,0.113688 -0.372069,0.273884 -0.222208,0.160197 -0.418578,0.253214 -0.273884,0.124023 -0.568439,0.180867 -0.294555,0.06201 -0.645953,0.06201 -0.82682,0 -1.384924,-0.511595 -0.558104,-0.511595 -0.558104,-1.30741 0,-0.635618 0.28422,-1.038693 0.284219,-0.403075 0.806149,-0.635618 0.516763,-0.232543 1.281572,-0.330728 0.764809,-0.09819 1.586461,-0.144694 v -0.031 q 0,-0.48059 -0.392739,-0.661457 -0.39274,-0.186034 -1.157549,-0.186034 -0.459918,0 -0.981849,0.165364 -0.52193,0.160196 -0.749306,0.248046 H 43.275895 V 63.6894 q 0.294554,-0.07751 0.956011,-0.180867 0.666623,-0.10852 1.333247,-0.10852 1.586462,0 2.289259,0.490924 0.707965,0.485757 0.707965,1.529618 v 3.948067 h -1.844843 z"
             id="path12574"
             style="stroke-width:1.23986" />
          <path
             d="m 52.133208,69.368622 h -1.860345 v -5.803245 h 1.860345 z m 0.05168,-6.630065 H 50.22119 v -1.410762 h 1.963698 z"
             id="path12576"
             style="stroke-width:1.23986" />
          <path
             d="m 59.719282,69.368622 h -1.870681 v -2.878368 q 0,-0.351399 -0.03617,-0.69763 -0.03617,-0.351399 -0.124023,-0.516763 -0.103353,-0.191202 -0.30489,-0.279051 -0.19637,-0.08785 -0.552936,-0.08785 -0.253214,0 -0.516763,0.08268 -0.258381,0.08268 -0.563271,0.263549 v 4.113431 h -1.860346 v -5.803245 h 1.860346 v 0.640786 q 0.496092,-0.387572 0.950843,-0.594277 0.459919,-0.206705 1.018023,-0.206705 0.940508,0 1.467606,0.547768 0.532265,0.547768 0.532265,1.638138 z"
             id="path12578"
             style="stroke-width:1.23986" />
          <path
             d="m 25.12719,80.241309 q 0,0.558103 -0.227376,0.997352 -0.222208,0.439248 -0.614947,0.728635 -0.454751,0.341063 -1.00252,0.485757 -0.542601,0.144693 -1.379756,0.144693 H 18.543633 V 74.90315 h 2.986889 q 0.930172,0 1.359085,0.06201 0.434081,0.06201 0.857827,0.273884 0.439248,0.222208 0.65112,0.599445 0.217041,0.372069 0.217041,0.852658 0,0.558104 -0.294555,0.987017 -0.294555,0.423745 -0.831988,0.661456 v 0.04134 q 0.754474,0.149861 1.193722,0.620115 0.444416,0.470254 0.444416,1.240231 z m -2.542473,-3.162588 q 0,-0.191202 -0.09818,-0.382404 -0.09302,-0.191203 -0.335896,-0.28422 -0.21704,-0.08268 -0.542601,-0.08785 -0.320393,-0.01033 -0.904335,-0.01033 h -0.186034 v 1.627803 h 0.310057 q 0.470254,0 0.800983,-0.0155 0.330728,-0.0155 0.52193,-0.103353 0.268716,-0.118855 0.351398,-0.30489 0.08268,-0.191202 0.08268,-0.439248 z m 0.485757,3.131582 q 0,-0.366902 -0.144693,-0.563272 -0.139526,-0.201537 -0.480589,-0.299722 -0.232544,-0.06718 -0.640786,-0.07235 -0.408243,-0.0052 -0.852659,-0.0052 h -0.43408 v 1.917189 h 0.144693 q 0.837156,0 1.19889,-0.0052 0.361734,-0.0052 0.666624,-0.134359 0.310057,-0.12919 0.423745,-0.341063 0.118855,-0.21704 0.118855,-0.496092 z"
             id="path12580"
             style="stroke-width:1.23986" />
          <path
             d="m 32.284353,82.597746 h -1.860345 v -0.640785 q -0.516763,0.392739 -0.945676,0.599444 -0.428913,0.201538 -1.02319,0.201538 -0.961179,0 -1.483109,-0.552936 -0.516763,-0.552936 -0.516763,-1.63297 v -3.777535 h 1.870681 v 2.878368 q 0,0.439248 0.02584,0.733803 0.03101,0.289387 0.134359,0.480589 0.09819,0.191202 0.294554,0.279052 0.201538,0.08785 0.558104,0.08785 0.237711,0 0.527098,-0.08785 0.289387,-0.08785 0.558104,-0.258382 v -4.11343 h 1.860345 z"
             id="path12582"
             style="stroke-width:1.23986" />
          <path
             d="m 35.901691,82.597746 h -1.860346 v -5.803244 h 1.860346 z m 0.05168,-6.630065 h -1.963698 v -1.410762 h 1.963698 z"
             id="path12584"
             style="stroke-width:1.23986" />
          <path
             d="m 39.519031,82.597746 h -1.860346 v -8.040827 h 1.860346 z"
             id="path12586"
             style="stroke-width:1.23986" />
          <path
             d="m 46.919072,82.597746 h -1.860346 v -0.604612 q -0.480589,0.39274 -0.899167,0.578774 -0.418578,0.186035 -0.966346,0.186035 -1.059364,0 -1.694982,-0.816485 -0.635618,-0.816485 -0.635618,-2.201409 0,-0.738971 0.211873,-1.30741 0.21704,-0.573606 0.589109,-0.981849 0.351399,-0.387572 0.852659,-0.599445 0.50126,-0.21704 1.002519,-0.21704 0.521931,0 0.852659,0.113688 0.335895,0.10852 0.687294,0.279052 v -2.470126 h 1.860346 z M 45.058726,80.995782 V 78.14842 q -0.19637,-0.08268 -0.41341,-0.118856 -0.21704,-0.03617 -0.397907,-0.03617 -0.733803,0 -1.100705,0.459919 -0.366901,0.454751 -0.366901,1.266068 0,0.852659 0.294554,1.240231 0.294555,0.382404 0.945676,0.382404 0.253214,0 0.537433,-0.09302 0.28422,-0.09819 0.50126,-0.253214 z"
             id="path12588"
             style="stroke-width:1.23986" />
          <path
             d="m 54.39146,80.039771 h -4.258124 q 0.04134,0.682127 0.516762,1.043861 0.48059,0.361734 1.410762,0.361734 0.58911,0 1.142046,-0.211873 0.552936,-0.211873 0.873329,-0.454751 h 0.206705 v 1.493444 q -0.630451,0.253214 -1.188554,0.366901 -0.558104,0.113688 -1.235063,0.113688 -1.746658,0 -2.676831,-0.785479 -0.930173,-0.785479 -0.930173,-2.237582 0,-1.436601 0.878497,-2.273756 0.883664,-0.842323 2.418449,-0.842323 1.41593,0 2.129063,0.7183 0.713132,0.713132 0.713132,2.056715 z m -1.85001,-1.090369 q -0.0155,-0.583942 -0.289387,-0.878497 -0.273885,-0.294554 -0.852659,-0.294554 -0.537433,0 -0.883664,0.279051 -0.346231,0.279052 -0.387572,0.894 z"
             id="path12590"
             style="stroke-width:1.23986" />
          <path
             d="m 59.910486,78.566997 h -0.165364 q -0.118855,-0.04134 -0.382404,-0.06201 -0.263549,-0.02067 -0.439248,-0.02067 -0.397908,0 -0.702798,0.05168 -0.30489,0.05168 -0.656288,0.175699 v 3.886055 h -1.860346 v -5.803244 h 1.860346 v 0.852658 q 0.614947,-0.527098 1.069698,-0.69763 0.454752,-0.175699 0.837156,-0.175699 0.09819,0 0.222208,0.0052 0.124023,0.0052 0.21704,0.0155 z"
             id="path12592"
             style="stroke-width:1.23986" />
        </g>
      </g>
    </g>
    <g
       id="g3920"
       transform="matrix(0.12595856,0,0,0.12595856,-192.43085,-192.56199)"
       style="stroke-width:7.93906" />
    <g
       id="g2882">
      <rect
         style="fill:#21262e;fill-opacity:0;stroke-width:0.700001;stroke-linecap:round;stroke-linejoin:round"
         id="rect12141"
         width="16.933332"
         height="16.933332"
         x="-212.98288"
         y="-214.93423"
         ry="0" />
      <g
         aria-label="Grass Color"
         id="text4475"
         style="font-weight:bold;font-size:10.5833px;line-height:1.25;-inkscape-font-specification:'sans-serif, Bold';fill:#f2f2f2;stroke-width:1.3128"
         transform="matrix(0.20153996,0,0,0.20153996,-195.65575,-187.03335)">
        <path
           d="m -51.47285,-76.345864 q -0.516763,0.201537 -1.369421,0.403074 -0.852659,0.19637 -1.700149,0.19637 -1.963699,0 -3.074738,-1.064531 -1.11104,-1.069699 -1.11104,-2.950715 0,-1.793166 1.121375,-2.888703 1.121375,-1.100705 3.126414,-1.100705 0.759641,0 1.446936,0.139526 0.687294,0.134359 1.529617,0.542601 v 1.803502 h -0.222208 q -0.144693,-0.10852 -0.423745,-0.30489 -0.279052,-0.201538 -0.537433,-0.341064 -0.299723,-0.165364 -0.702798,-0.284219 -0.397907,-0.118855 -0.84749,-0.118855 -0.527098,0 -0.956011,0.155028 -0.428913,0.155029 -0.769977,0.475422 -0.32556,0.310058 -0.516763,0.790647 -0.186034,0.475422 -0.186034,1.100704 0,1.276404 0.676959,1.953363 0.676959,0.676959 1.999872,0.676959 0.113687,0 0.248046,-0.0052 0.139526,-0.0052 0.253213,-0.0155 v -1.508947 H -55.02301 V -80.1441 h 3.55016 z"
           id="path12984"
           style="stroke-width:1.3128" />
        <path
           d="m -45.592091,-79.937365 h -0.165364 q -0.118855,-0.04134 -0.382404,-0.06201 -0.263549,-0.02067 -0.439248,-0.02067 -0.397908,0 -0.702798,0.05168 -0.30489,0.05168 -0.656288,0.175699 v 3.886056 h -1.860346 v -5.803245 h 1.860346 v 0.852658 q 0.614947,-0.527098 1.069699,-0.697629 0.454751,-0.1757 0.837155,-0.1757 0.09819,0 0.222208,0.0052 0.124023,0.0052 0.21704,0.0155 z"
           id="path12986"
           style="stroke-width:1.3128" />
        <path
           d="m -41.023909,-77.420731 v -1.209225 q -0.377236,0.03101 -0.816485,0.08785 -0.439248,0.05168 -0.666623,0.124023 -0.279052,0.08785 -0.428914,0.258382 -0.144693,0.165364 -0.144693,0.439248 0,0.180867 0.03101,0.294555 0.03101,0.113687 0.155028,0.21704 0.118856,0.103352 0.28422,0.155029 0.165364,0.04651 0.516763,0.04651 0.279051,0 0.563271,-0.113688 0.289387,-0.113687 0.506427,-0.299722 z m 0,0.899167 q -0.149861,0.113688 -0.372069,0.273884 -0.222208,0.160197 -0.418578,0.253214 -0.273884,0.124023 -0.568438,0.180867 -0.294555,0.06201 -0.645954,0.06201 -0.82682,0 -1.384924,-0.511595 -0.558103,-0.511596 -0.558103,-1.30741 0,-0.635618 0.284219,-1.038693 0.284219,-0.403075 0.80615,-0.635618 0.516762,-0.232543 1.281571,-0.330728 0.764809,-0.09819 1.586462,-0.144694 v -0.03101 q 0,-0.480589 -0.39274,-0.661456 -0.39274,-0.186034 -1.157548,-0.186034 -0.459919,0 -0.981849,0.165364 -0.521931,0.160196 -0.749306,0.248046 h -0.170532 v -1.400427 q 0.294555,-0.07751 0.956011,-0.180867 0.666624,-0.10852 1.333248,-0.10852 1.586461,0 2.289258,0.490924 0.707965,0.485757 0.707965,1.529618 v 3.948067 h -1.844843 z"
           id="path12988"
           style="stroke-width:1.3128" />
        <path
           d="m -32.424978,-77.746291 q 0,0.899167 -0.80615,1.452103 -0.80615,0.547768 -2.206576,0.547768 -0.775144,0 -1.405595,-0.144693 -0.63045,-0.144694 -1.012855,-0.320393 v -1.529618 h 0.170532 q 0.139526,0.09819 0.320393,0.217041 0.186034,0.113687 0.52193,0.248046 0.289387,0.118855 0.656289,0.206705 0.366901,0.08268 0.785479,0.08268 0.547768,0 0.811317,-0.118856 0.263549,-0.124023 0.263549,-0.361733 0,-0.211873 -0.155028,-0.30489 -0.155029,-0.09818 -0.58911,-0.186035 -0.206705,-0.04651 -0.563271,-0.09819 -0.351399,-0.05684 -0.640786,-0.134358 -0.790647,-0.206705 -1.173051,-0.640786 -0.382405,-0.439248 -0.382405,-1.090369 0,-0.837156 0.790647,-1.390092 0.795815,-0.558104 2.170403,-0.558104 0.651121,0 1.245399,0.134359 0.599444,0.12919 0.93534,0.279052 v 1.467606 h -0.160196 q -0.413411,-0.28422 -0.945676,-0.459919 -0.527098,-0.180867 -1.069699,-0.180867 -0.449583,0 -0.759641,0.124023 -0.30489,0.124023 -0.30489,0.351399 0,0.206705 0.139526,0.315225 0.139526,0.10852 0.656289,0.21704 0.284219,0.05684 0.609779,0.113688 0.330729,0.05168 0.661457,0.134358 0.733803,0.191202 1.085201,0.604613 0.351399,0.408242 0.351399,1.02319 z"
           id="path12990"
           style="stroke-width:1.3128" />
        <path
           d="m -26.146311,-77.746291 q 0,0.899167 -0.806149,1.452103 -0.80615,0.547768 -2.206577,0.547768 -0.775144,0 -1.405594,-0.144693 -0.630451,-0.144694 -1.012855,-0.320393 v -1.529618 h 0.170531 q 0.139526,0.09819 0.320393,0.217041 0.186035,0.113687 0.521931,0.248046 0.289387,0.118855 0.656288,0.206705 0.366902,0.08268 0.785479,0.08268 0.547769,0 0.811318,-0.118856 0.263549,-0.124023 0.263549,-0.361733 0,-0.211873 -0.155029,-0.30489 -0.155029,-0.09818 -0.589109,-0.186035 -0.206706,-0.04651 -0.563272,-0.09819 -0.351398,-0.05684 -0.640786,-0.134358 -0.790646,-0.206705 -1.173051,-0.640786 -0.382404,-0.439248 -0.382404,-1.090369 0,-0.837156 0.790647,-1.390092 0.795814,-0.558104 2.170403,-0.558104 0.651121,0 1.245398,0.134359 0.599445,0.12919 0.93534,0.279052 v 1.467606 h -0.160196 q -0.41341,-0.28422 -0.945676,-0.459919 -0.527098,-0.180867 -1.069698,-0.180867 -0.449584,0 -0.759642,0.124023 -0.30489,0.124023 -0.30489,0.351399 0,0.206705 0.139526,0.315225 0.139526,0.10852 0.656289,0.21704 0.284219,0.05684 0.60978,0.113688 0.330728,0.05168 0.661456,0.134358 0.733803,0.191202 1.085202,0.604613 0.351398,0.408242 0.351398,1.02319 z"
           id="path12992"
           style="stroke-width:1.3128" />
        <path
           d="m -54.800802,-62.52763 q -0.857826,0 -1.586461,-0.253214 -0.723468,-0.253214 -1.245398,-0.754474 -0.521931,-0.50126 -0.811318,-1.250565 -0.284219,-0.749306 -0.284219,-1.731155 0,-0.91467 0.273884,-1.658809 0.273884,-0.744138 0.795815,-1.276403 0.501259,-0.511595 1.24023,-0.790647 0.744138,-0.279052 1.622635,-0.279052 0.485757,0 0.873329,0.05684 0.392739,0.05168 0.723467,0.139526 0.346231,0.09819 0.625283,0.222208 0.28422,0.118855 0.496093,0.222208 v 1.865513 h -0.227376 q -0.144694,-0.124023 -0.366902,-0.294555 -0.21704,-0.170532 -0.496092,-0.335896 -0.284219,-0.165364 -0.614947,-0.279051 -0.330728,-0.113688 -0.707965,-0.113688 -0.418578,0 -0.795815,0.134358 -0.377236,0.129191 -0.697629,0.434081 -0.30489,0.294554 -0.496093,0.780311 -0.186034,0.485757 -0.186034,1.178219 0,0.723468 0.201537,1.209225 0.206705,0.485757 0.516763,0.764809 0.315225,0.284219 0.702797,0.408242 0.387572,0.118856 0.764809,0.118856 0.361734,0 0.713133,-0.108521 0.356566,-0.10852 0.656288,-0.294554 0.253214,-0.149861 0.470254,-0.320393 0.217041,-0.170532 0.356566,-0.294555 h 0.206706 v 1.839675 q -0.289388,0.129191 -0.552937,0.242879 -0.263549,0.113688 -0.552936,0.19637 -0.377236,0.10852 -0.707964,0.165364 -0.330729,0.05684 -0.909503,0.05684 z"
           id="path12994"
           style="stroke-width:1.3128" />
        <path
           d="m -44.791109,-65.57653 q 0,1.431432 -0.837155,2.258253 -0.831988,0.821652 -2.340935,0.821652 -1.508947,0 -2.346103,-0.821652 -0.831988,-0.826821 -0.831988,-2.258253 0,-1.441768 0.837156,-2.263421 0.842323,-0.821652 2.340935,-0.821652 1.519282,0 2.346102,0.82682 0.831988,0.82682 0.831988,2.258253 z m -2.289258,1.410762 q 0.180867,-0.222208 0.268716,-0.532266 0.09302,-0.315225 0.09302,-0.868161 0,-0.511595 -0.09302,-0.857826 -0.09302,-0.346231 -0.258381,-0.552936 -0.165364,-0.211873 -0.397907,-0.299722 -0.232544,-0.08785 -0.50126,-0.08785 -0.268717,0 -0.480589,0.07235 -0.206706,0.07235 -0.397908,0.289387 -0.170531,0.201537 -0.273884,0.552936 -0.09819,0.351398 -0.09819,0.883664 0,0.475422 0.08785,0.82682 0.08785,0.346231 0.258381,0.558104 0.165364,0.201537 0.39274,0.294555 0.232543,0.09302 0.527098,0.09302 0.253213,0 0.480589,-0.08268 0.232543,-0.08785 0.39274,-0.289387 z"
           id="path12996"
           style="stroke-width:1.3128" />
        <path
           d="m -41.597515,-62.677492 h -1.860346 v -8.040827 h 1.860346 z"
           id="path12998"
           style="stroke-width:1.3128" />
        <path
           d="m -33.908087,-65.57653 q 0,1.431432 -0.837155,2.258253 -0.831988,0.821652 -2.340935,0.821652 -1.508947,0 -2.346103,-0.821652 -0.831988,-0.826821 -0.831988,-2.258253 0,-1.441768 0.837156,-2.263421 0.842323,-0.821652 2.340935,-0.821652 1.519282,0 2.346102,0.82682 0.831988,0.82682 0.831988,2.258253 z m -2.289259,1.410762 q 0.180867,-0.222208 0.268717,-0.532266 0.09302,-0.315225 0.09302,-0.868161 0,-0.511595 -0.09302,-0.857826 -0.09302,-0.346231 -0.258381,-0.552936 -0.165364,-0.211873 -0.397908,-0.299722 -0.232543,-0.08785 -0.501259,-0.08785 -0.268717,0 -0.48059,0.07235 -0.206705,0.07235 -0.397907,0.289387 -0.170532,0.201537 -0.273884,0.552936 -0.09819,0.351398 -0.09819,0.883664 0,0.475422 0.08785,0.82682 0.08785,0.346231 0.258381,0.558104 0.165364,0.201537 0.39274,0.294555 0.232543,0.09302 0.527098,0.09302 0.253213,0 0.480589,-0.08268 0.232543,-0.08785 0.392739,-0.289387 z"
           id="path13000"
           style="stroke-width:1.3128" />
        <path
           d="m -28.36839,-66.708241 h -0.165364 q -0.118856,-0.04134 -0.382404,-0.06201 -0.263549,-0.02067 -0.439249,-0.02067 -0.397907,0 -0.702797,0.05168 -0.30489,0.05168 -0.656289,0.175699 v 3.886055 h -1.860345 v -5.803245 h 1.860345 v 0.852659 q 0.614948,-0.527098 1.069699,-0.69763 0.454751,-0.175699 0.837156,-0.175699 0.09819,0 0.222208,0.0052 0.124023,0.0052 0.21704,0.0155 z"
           id="path13002"
           style="stroke-width:1.3128" />
      </g>
      <path
         style="fill:#a1bf91;fill-opacity:1;stroke:none;stroke-width:0.264583px;stroke-linecap:butt;stroke-linejoin:miter;stroke-opacity:1"
         d="m -206.42309,-206.04062 c 0.81124,0.54122 4.98339,0.499 5.09584,-0.13728 2.61554,-4.30005 -0.59814,-5.91509 -1.71331,-2.38192 1.26838,-4.72902 -2.26055,-6.1998 -2.21258,-0.25094 -3.13578,-5.94267 -2.70343,1.08637 -1.16995,2.77014 z"
         id="path867-1"
         sodipodi:nodetypes="ccccc" />
    </g>
    <g
       id="g25799"
       transform="matrix(0.20153996,0,0,0.20153996,-193.68675,-211.78384)"
       style="stroke-width:4.96184">
      <rect
         style="fill:#21262e;fill-opacity:0;stroke-width:3.47326;stroke-linecap:round;stroke-linejoin:round"
         id="rect25763"
         width="84.01973"
         height="84.01973"
         x="-263.78287"
         y="-15.631588"
         ry="0" />
      <g
         id="g36978">
        <path
           style="fill:#f2f2f2;fill-opacity:1;stroke:none;stroke-width:9.92356;stroke-linecap:butt;stroke-linejoin:miter;stroke-miterlimit:4;stroke-dasharray:none;stroke-opacity:1"
           d="m -219.33338,12.819503 c 4.57774,-5.1225988 24.72713,-18.7921544 26.05031,-17.5306058 1.64052,1.2618111 -13.32343,21.3130698 -20.44016,24.9001258 -7.34208,3.700638 -9.66859,-2.828026 -5.61015,-7.36952 z"
           id="path25765"
           sodipodi:nodetypes="scss" />
        <path
           style="fill:#a1bf91;fill-opacity:1;stroke:none;stroke-width:4.96184;stroke-linecap:butt;stroke-linejoin:miter;stroke-miterlimit:4;stroke-dasharray:none;stroke-opacity:1"
           d="m -220.95106,23.48396 c -2.80175,4.593604 -12.0154,3.598576 -12.56973,2.928826 -0.44598,-1.197465 4.08506,-3.94361 7.50562,-8.738437 1.14273,-1.601843 5.83479,4.546035 5.06411,5.809611 z"
           id="path25767"
           sodipodi:nodetypes="scss" />
        <path
           style="fill:none;stroke:#a1bf91;stroke-width:2.97708;stroke-linecap:round;stroke-linejoin:round;stroke-miterlimit:4;stroke-dasharray:none;stroke-opacity:1"
           d="m -237.19138,21.802039 c -13.07258,-4.30574 -0.50741,-4.8885 -1.41432,-7.404231 -0.7781,-2.158429 -8.8042,-5.8022478 -8.85964,-5.7745228"
           id="path25769"
           sodipodi:nodetypes="csc" />
        <g
           aria-label="Terrain  Color"
           id="g25795"
           style="font-weight:bold;font-size:10.5833px;line-height:1.25;-inkscape-font-specification:'sans-serif, Bold';fill:#f2f2f2;stroke-width:1.31281"
           transform="translate(1.3069151,2.5382595)">
          <path
             d="m -234.58661,38.082518 h -2.40295 v 6.206319 h -1.98437 v -6.206319 h -2.40294 v -1.488277 h 6.79026 z"
             id="path25771"
             style="stroke-width:1.31281" />
          <path
             d="m -227.78085,41.730862 h -4.25812 q 0.0413,0.682127 0.51676,1.043861 0.48059,0.361734 1.41076,0.361734 0.58911,0 1.14205,-0.211873 0.55294,-0.211873 0.87333,-0.454751 h 0.2067 v 1.493444 q -0.63045,0.253214 -1.18855,0.366901 -0.5581,0.113688 -1.23506,0.113688 -1.74666,0 -2.67683,-0.785479 -0.93018,-0.785479 -0.93018,-2.237582 0,-1.436601 0.8785,-2.273756 0.88366,-0.842323 2.41845,-0.842323 1.41593,0 2.12906,0.7183 0.71313,0.713132 0.71313,2.056715 z m -1.85001,-1.090369 q -0.0155,-0.583942 -0.28938,-0.878497 -0.27389,-0.294554 -0.85266,-0.294554 -0.53744,0 -0.88367,0.279051 -0.34623,0.279052 -0.38757,0.894 z"
             id="path25773"
             style="stroke-width:1.31281" />
          <path
             d="m -222.26182,40.258089 h -0.16536 q -0.11886,-0.04134 -0.38241,-0.06201 -0.26355,-0.02067 -0.43925,-0.02067 -0.3979,0 -0.70279,0.05168 -0.30489,0.05168 -0.65629,0.175699 v 3.886055 h -1.86035 v -5.803244 h 1.86035 v 0.852658 q 0.61494,-0.527098 1.0697,-0.69763 0.45475,-0.175699 0.83715,-0.175699 0.0982,0 0.22221,0.0052 0.12402,0.0052 0.21704,0.0155 z"
             id="path25775"
             style="stroke-width:1.31281" />
          <path
             d="m -217.00118,40.258089 h -0.16536 q -0.11886,-0.04134 -0.38241,-0.06201 -0.26355,-0.02067 -0.43924,-0.02067 -0.39791,0 -0.7028,0.05168 -0.30489,0.05168 -0.65629,0.175699 v 3.886055 h -1.86035 v -5.803244 h 1.86035 v 0.852658 q 0.61495,-0.527098 1.0697,-0.69763 0.45475,-0.175699 0.83715,-0.175699 0.0982,0 0.22221,0.0052 0.12402,0.0052 0.21704,0.0155 z"
             id="path25777"
             style="stroke-width:1.31281" />
          <path
             d="m -212.43299,42.774723 v -1.209225 q -0.37724,0.03101 -0.81649,0.08785 -0.43925,0.05168 -0.66662,0.124023 -0.27906,0.08785 -0.42892,0.258381 -0.14469,0.165364 -0.14469,0.439248 0,0.180867 0.031,0.294555 0.031,0.113688 0.15502,0.21704 0.11886,0.103353 0.28422,0.155029 0.16537,0.04651 0.51677,0.04651 0.27905,0 0.56327,-0.113688 0.28938,-0.113688 0.50643,-0.299722 z m 0,0.899167 q -0.14987,0.113688 -0.37207,0.273884 -0.22221,0.160196 -0.41858,0.253214 -0.27389,0.124023 -0.56844,0.180867 -0.29456,0.06201 -0.64595,0.06201 -0.82682,0 -1.38493,-0.511595 -0.5581,-0.511595 -0.5581,-1.307409 0,-0.635618 0.28422,-1.038693 0.28422,-0.403075 0.80615,-0.635618 0.51676,-0.232544 1.28157,-0.330729 0.76481,-0.09818 1.58646,-0.144693 v -0.03101 q 0,-0.480589 -0.39274,-0.661456 -0.39274,-0.186035 -1.15755,-0.186035 -0.45992,0 -0.98185,0.165364 -0.52193,0.160197 -0.7493,0.248046 h -0.17053 v -1.400426 q 0.29455,-0.07752 0.95601,-0.180867 0.66662,-0.10852 1.33324,-0.10852 1.58647,0 2.28926,0.490924 0.70797,0.485757 0.70797,1.529618 v 3.948066 h -1.84484 z"
             id="path25779"
             style="stroke-width:1.31281" />
          <path
             d="m -207.01732,44.288837 h -1.86035 v -5.803244 h 1.86035 z m 0.0517,-6.630065 h -1.96369 V 36.24801 h 1.96369 z"
             id="path25781"
             style="stroke-width:1.31281" />
          <path
             d="m -199.43124,44.288837 h -1.87069 v -2.878368 q 0,-0.351398 -0.0362,-0.697629 -0.0362,-0.351399 -0.12402,-0.516763 -0.10335,-0.191202 -0.30489,-0.279052 -0.19637,-0.08785 -0.55294,-0.08785 -0.25321,0 -0.51676,0.08268 -0.25838,0.08268 -0.56327,0.263549 v 4.11343 h -1.86035 V 38.48559 h 1.86035 v 0.640785 q 0.49609,-0.387572 0.95084,-0.594277 0.45992,-0.206705 1.01802,-0.206705 0.94051,0 1.46761,0.547769 0.53227,0.547768 0.53227,1.638137 z"
             id="path25783"
             style="stroke-width:1.31281" />
          <path
             d="m -233.51174,57.667823 q -0.85783,0 -1.58647,-0.253214 -0.72346,-0.253213 -1.24539,-0.754473 -0.52193,-0.50126 -0.81132,-1.250566 -0.28422,-0.749306 -0.28422,-1.731155 0,-0.91467 0.27388,-1.658808 0.27389,-0.744138 0.79582,-1.276404 0.50126,-0.511595 1.24023,-0.790647 0.74414,-0.279051 1.62263,-0.279051 0.48576,0 0.87333,0.05684 0.39274,0.05168 0.72347,0.139526 0.34623,0.09818 0.62528,0.222208 0.28422,0.118856 0.49609,0.222208 v 1.865514 h -0.22737 q -0.14469,-0.124024 -0.3669,-0.294555 -0.21704,-0.170532 -0.49609,-0.335896 -0.28422,-0.165364 -0.61495,-0.279052 -0.33073,-0.113688 -0.70797,-0.113688 -0.41857,0 -0.79581,0.134359 -0.37724,0.12919 -0.69763,0.43408 -0.30489,0.294555 -0.49609,0.780312 -0.18604,0.485757 -0.18604,1.178219 0,0.723468 0.20154,1.209225 0.2067,0.485756 0.51676,0.764808 0.31523,0.28422 0.7028,0.408243 0.38757,0.118855 0.76481,0.118855 0.36173,0 0.71313,-0.10852 0.35657,-0.10852 0.65629,-0.294555 0.25321,-0.149861 0.47025,-0.320392 0.21704,-0.170532 0.35657,-0.294555 h 0.2067 v 1.839675 q -0.28938,0.129191 -0.55293,0.242878 -0.26355,0.113688 -0.55294,0.19637 -0.37723,0.10852 -0.70796,0.165364 -0.33073,0.05684 -0.9095,0.05684 z"
             id="path25785"
             style="stroke-width:1.31281" />
          <path
             d="m -223.50205,54.618923 q 0,1.431433 -0.83716,2.258253 -0.83198,0.821653 -2.34093,0.821653 -1.50895,0 -2.3461,-0.821653 -0.83199,-0.82682 -0.83199,-2.258253 0,-1.441768 0.83715,-2.26342 0.84233,-0.821653 2.34094,-0.821653 1.51928,0 2.3461,0.82682 0.83199,0.826821 0.83199,2.258253 z m -2.28926,1.410762 q 0.18087,-0.222207 0.26872,-0.532265 0.093,-0.315225 0.093,-0.868161 0,-0.511595 -0.093,-0.857826 -0.093,-0.346231 -0.25838,-0.552936 -0.16537,-0.211873 -0.39791,-0.299723 -0.23255,-0.08785 -0.50126,-0.08785 -0.26872,0 -0.48059,0.07235 -0.20671,0.07235 -0.39791,0.289387 -0.17053,0.201538 -0.27388,0.552936 -0.0982,0.351399 -0.0982,0.883665 0,0.475421 0.0879,0.82682 0.0879,0.346231 0.25838,0.558104 0.16537,0.201537 0.39274,0.294554 0.23255,0.09302 0.5271,0.09302 0.25321,0 0.48059,-0.08268 0.23254,-0.08785 0.39274,-0.289388 z"
             id="path25787"
             style="stroke-width:1.31281" />
          <path
             d="m -220.30846,57.517962 h -1.86034 v -8.040827 h 1.86034 z"
             id="path25789"
             style="stroke-width:1.31281" />
          <path
             d="m -212.61903,54.618923 q 0,1.431433 -0.83716,2.258253 -0.83198,0.821653 -2.34093,0.821653 -1.50895,0 -2.3461,-0.821653 -0.83199,-0.82682 -0.83199,-2.258253 0,-1.441768 0.83715,-2.26342 0.84233,-0.821653 2.34094,-0.821653 1.51928,0 2.3461,0.82682 0.83199,0.826821 0.83199,2.258253 z m -2.28926,1.410762 q 0.18087,-0.222207 0.26872,-0.532265 0.093,-0.315225 0.093,-0.868161 0,-0.511595 -0.093,-0.857826 -0.093,-0.346231 -0.25838,-0.552936 -0.16537,-0.211873 -0.39791,-0.299723 -0.23254,-0.08785 -0.50126,-0.08785 -0.26872,0 -0.48059,0.07235 -0.2067,0.07235 -0.39791,0.289387 -0.17053,0.201538 -0.27388,0.552936 -0.0982,0.351399 -0.0982,0.883665 0,0.475421 0.0878,0.82682 0.0879,0.346231 0.25838,0.558104 0.16537,0.201537 0.39274,0.294554 0.23255,0.09302 0.5271,0.09302 0.25322,0 0.48059,-0.08268 0.23254,-0.08785 0.39274,-0.289388 z"
             id="path25791"
             style="stroke-width:1.31281" />
          <path
             d="m -207.07933,53.487213 h -0.16537 q -0.11885,-0.04134 -0.3824,-0.06201 -0.26355,-0.02067 -0.43925,-0.02067 -0.39791,0 -0.7028,0.05168 -0.30489,0.05168 -0.65629,0.1757 v 3.886055 h -1.86034 v -5.803245 h 1.86034 v 0.852659 q 0.61495,-0.527098 1.0697,-0.69763 0.45475,-0.175699 0.83716,-0.175699 0.0982,0 0.22221,0.0052 0.12402,0.0052 0.21704,0.0155 z"
             id="path25793"
             style="stroke-width:1.31281" />
        </g>
      </g>
    </g>
    <g
       id="g37018">
      <rect
         style="fill:#21262e;fill-opacity:0;stroke-width:0.700001;stroke-linecap:round;stroke-linejoin:round"
         id="rect12137"
         width="16.933332"
         height="16.933332"
         x="-229.9162"
         y="-214.93423"
         ry="0" />
      <g
         id="g36997">
        <g
           id="g1611"
           transform="matrix(0.20153996,0,0,0.20153996,-207.2728,-211.10712)"
           style="stroke-width:4.96176">
          <g
             aria-label="Terrain Height"
             id="text4459"
             style="font-weight:bold;font-size:10.5833px;line-height:1.25;-inkscape-font-specification:'sans-serif, Bold';fill:#f2f2f2;stroke-width:1.3128"
             transform="translate(0,7.283928)">
            <path
               d="m -83.297487,29.888109 h -2.402947 v 6.20632 h -1.984368 v -6.20632 h -2.402947 v -1.488276 h 6.790262 z"
               id="path12921"
               style="stroke-width:1.3128" />
            <path
               d="m -76.491723,33.536454 h -4.258124 q 0.04134,0.682126 0.516762,1.04386 0.48059,0.361734 1.410762,0.361734 0.58911,0 1.142046,-0.211872 0.552936,-0.211873 0.873329,-0.454752 h 0.206705 v 1.493445 q -0.630451,0.253213 -1.188554,0.366901 -0.558104,0.113688 -1.235063,0.113688 -1.746658,0 -2.676831,-0.785479 -0.930173,-0.78548 -0.930173,-2.237583 0,-1.4366 0.878497,-2.273756 0.883664,-0.842323 2.418449,-0.842323 1.41593,0 2.129063,0.7183 0.713132,0.713133 0.713132,2.056716 z m -1.85001,-1.090369 q -0.0155,-0.583942 -0.289387,-0.878497 -0.273885,-0.294555 -0.852659,-0.294555 -0.537433,0 -0.883664,0.279052 -0.346231,0.279052 -0.387572,0.894 z"
               id="path12923"
               style="stroke-width:1.3128" />
            <path
               d="m -70.972697,32.06368 h -0.165364 q -0.118856,-0.04134 -0.382405,-0.06201 -0.263549,-0.02067 -0.439248,-0.02067 -0.397907,0 -0.702797,0.05168 -0.30489,0.05168 -0.656289,0.1757 v 3.886055 h -1.860345 V 30.29119 h 1.860345 v 0.852659 q 0.614948,-0.527098 1.069699,-0.69763 0.454751,-0.175699 0.837155,-0.175699 0.09819,0 0.222208,0.0052 0.124023,0.0052 0.217041,0.0155 z"
               id="path12925"
               style="stroke-width:1.3128" />
            <path
               d="m -65.712054,32.06368 h -0.165364 q -0.118856,-0.04134 -0.382405,-0.06201 -0.263549,-0.02067 -0.439248,-0.02067 -0.397907,0 -0.702797,0.05168 -0.30489,0.05168 -0.656289,0.1757 v 3.886055 h -1.860345 V 30.29119 h 1.860345 v 0.852659 q 0.614948,-0.527098 1.069699,-0.69763 0.454751,-0.175699 0.837155,-0.175699 0.09819,0 0.222208,0.0052 0.124023,0.0052 0.217041,0.0155 z"
               id="path12927"
               style="stroke-width:1.3128" />
            <path
               d="M -61.143871,34.580314 V 33.37109 q -0.377237,0.03101 -0.816485,0.08785 -0.439249,0.05168 -0.666624,0.124023 -0.279052,0.08785 -0.428913,0.258382 -0.144694,0.165364 -0.144694,0.439248 0,0.180867 0.03101,0.294555 0.03101,0.113688 0.155029,0.21704 0.118855,0.103353 0.284219,0.155029 0.165364,0.04651 0.516763,0.04651 0.279052,0 0.563271,-0.113688 0.289387,-0.113688 0.506428,-0.299723 z m 0,0.899167 q -0.149861,0.113688 -0.372069,0.273885 -0.222208,0.160196 -0.418578,0.253213 -0.273884,0.124023 -0.568439,0.180867 -0.294555,0.06201 -0.645953,0.06201 -0.826821,0 -1.384924,-0.511595 -0.558104,-0.511595 -0.558104,-1.30741 0,-0.635618 0.284219,-1.038693 0.28422,-0.403075 0.80615,-0.635618 0.516763,-0.232543 1.281572,-0.330728 0.764808,-0.09819 1.586461,-0.144694 v -0.03101 q 0,-0.48059 -0.39274,-0.661457 -0.392739,-0.186034 -1.157548,-0.186034 -0.459919,0 -0.981849,0.165364 -0.52193,0.160196 -0.749306,0.248046 h -0.170532 V 30.4152 q 0.294555,-0.07751 0.956011,-0.180867 0.666624,-0.10852 1.333248,-0.10852 1.586461,0 2.289259,0.490925 0.707964,0.485757 0.707964,1.529617 v 3.948067 h -1.844842 z"
               id="path12929"
               style="stroke-width:1.3128" />
            <path
               d="m -55.728199,36.094429 h -1.860345 v -5.803245 h 1.860345 z m 0.05168,-6.630065 h -1.963698 v -1.410762 h 1.963698 z"
               id="path12931"
               style="stroke-width:1.3128" />
            <path
               d="m -48.142121,36.094429 h -1.870681 v -2.878368 q 0,-0.351399 -0.03617,-0.69763 -0.03617,-0.351398 -0.124023,-0.516762 -0.103352,-0.191203 -0.30489,-0.279052 -0.196369,-0.08785 -0.552936,-0.08785 -0.253213,0 -0.516762,0.08268 -0.258382,0.08268 -0.563272,0.263549 v 4.113431 H -53.9712 v -5.803245 h 1.860345 v 0.640786 q 0.496092,-0.387572 0.950844,-0.594277 0.459918,-0.206705 1.018022,-0.206705 0.940508,0 1.467606,0.547768 0.532266,0.547769 0.532266,1.638138 z"
               id="path12933"
               style="stroke-width:1.3128" />
            <path
               d="m -82.418991,49.323554 h -1.984368 V 45.93359 h -2.930045 v 3.389964 h -1.984368 v -7.694597 h 1.984368 v 2.816357 h 2.930045 v -2.816357 h 1.984368 z"
               id="path12935"
               style="stroke-width:1.3128" />
            <path
               d="m -74.84325,46.765578 h -4.258124 q 0.04134,0.682127 0.516763,1.043861 0.480589,0.361734 1.410762,0.361734 0.589109,0 1.142045,-0.211873 0.552936,-0.211873 0.873329,-0.454751 h 0.206705 v 1.493444 q -0.63045,0.253214 -1.188554,0.366902 -0.558104,0.113687 -1.235063,0.113687 -1.746658,0 -2.67683,-0.785479 -0.930173,-0.785479 -0.930173,-2.237582 0,-1.436601 0.878496,-2.273756 0.883664,-0.842323 2.41845,-0.842323 1.415929,0 2.129062,0.7183 0.713132,0.713132 0.713132,2.056715 z m -1.85001,-1.090369 q -0.0155,-0.583942 -0.289387,-0.878496 -0.273884,-0.294555 -0.852659,-0.294555 -0.537433,0 -0.883664,0.279052 -0.346231,0.279051 -0.387572,0.893999 z"
               id="path12937"
               style="stroke-width:1.3128" />
            <path
               d="m -71.670327,49.323554 h -1.860346 v -5.803245 h 1.860346 z m 0.05168,-6.630066 h -1.963698 v -1.410762 h 1.963698 z"
               id="path12939"
               style="stroke-width:1.3128" />
            <path
               d="m -64.270285,48.65693 q 0,0.816485 -0.232543,1.374588 -0.232543,0.558104 -0.651121,0.873329 -0.418578,0.320393 -1.012855,0.459919 -0.58911,0.144694 -1.333248,0.144694 -0.604612,0 -1.193722,-0.07235 -0.583941,-0.07235 -1.012854,-0.175699 V 49.80931 h 0.227375 q 0.341064,0.134359 0.831988,0.242879 0.490925,0.113688 0.878497,0.113688 0.516762,0 0.837155,-0.09819 0.325561,-0.09302 0.496092,-0.268717 0.160197,-0.165364 0.232544,-0.423745 0.07235,-0.258382 0.07235,-0.620115 v -0.108521 q -0.335895,0.273885 -0.744138,0.434081 -0.408242,0.160197 -0.909502,0.160197 -1.21956,0 -1.881016,-0.733803 -0.661457,-0.733803 -0.661457,-2.232415 0,-0.7183 0.201538,-1.240231 0.201537,-0.52193 0.568439,-0.909502 0.341063,-0.361734 0.837155,-0.563271 0.50126,-0.201538 1.02319,-0.201538 0.470254,0 0.852659,0.113688 0.387572,0.10852 0.702797,0.30489 l 0.06718,-0.258381 h 1.803502 z m -1.860346,-1.162716 v -2.630322 q -0.160196,-0.06718 -0.392739,-0.103353 -0.232544,-0.04134 -0.418578,-0.04134 -0.733803,0 -1.100705,0.423746 -0.366901,0.418577 -0.366901,1.173051 0,0.837155 0.310057,1.167883 0.315226,0.330729 0.930173,0.330729 0.279052,0 0.547769,-0.08785 0.268716,-0.08785 0.490924,-0.232543 z"
               id="path12941"
               style="stroke-width:1.3128" />
            <path
               d="m -56.684209,49.323554 h -1.870681 v -2.878369 q 0,-0.351398 -0.03617,-0.697629 -0.03617,-0.351399 -0.124023,-0.516763 -0.103353,-0.191202 -0.30489,-0.279052 -0.19637,-0.08785 -0.552936,-0.08785 -0.253214,0 -0.516763,0.08268 -0.258381,0.08268 -0.563271,0.263549 v 4.113431 h -1.860346 v -8.040828 h 1.860346 v 2.878368 q 0.496092,-0.387572 0.950843,-0.594277 0.459919,-0.206705 1.018023,-0.206705 0.940508,0 1.467606,0.547769 0.532265,0.547768 0.532265,1.638137 z"
               id="path12943"
               style="stroke-width:1.3128" />
            <path
               d="m -51.26337,49.271877 q -0.299722,0.07751 -0.635618,0.118856 -0.335896,0.04651 -0.821653,0.04651 -1.085201,0 -1.617467,-0.439248 -0.527098,-0.439248 -0.527098,-1.503779 V 44.78121 h -0.764808 v -1.260901 h 0.764808 V 41.8615 h 1.860346 v 1.658809 h 1.74149 v 1.260901 h -1.74149 v 2.056715 q 0,0.30489 0.0052,0.532266 0.0052,0.227375 0.08268,0.408242 0.07235,0.180867 0.253213,0.289387 0.186035,0.103353 0.537433,0.103353 0.144694,0 0.377237,-0.06201 0.237711,-0.06201 0.330728,-0.113688 h 0.155029 z"
               id="path12945"
               style="stroke-width:1.3128" />
          </g>
        </g>
        <path
           style="fill:none;stroke:#f2f2f2;stroke-width:0.999999;stroke-linecap:round;stroke-linejoin:round;stroke-miterlimit:4;stroke-dasharray:none;stroke-opacity:1"
           d="m -223.97044,-206.91565 c 0.88524,-6.12673 4.21372,-7.04358 5.74776,0.14502"
           id="path30230"
           sodipodi:nodetypes="cc" />
        <path
           style="fill:none;stroke:#ffffff;stroke-width:1;stroke-linecap:round;stroke-linejoin:round;stroke-miterlimit:4;stroke-dasharray:none;stroke-opacity:1"
           d="m -225.62385,-206.38488 h 9.02589"
           id="path36324" />
      </g>
    </g>
    <rect
       style="fill:#21262e;fill-opacity:0;stroke-width:0.700001;stroke-linecap:round;stroke-linejoin:round"
       id="rect12139"
       width="16.933332"
       height="16.933332"
       x="-196.04955"
       y="-214.93423"
       ry="0" />
    <g
       aria-label="Grass Spawn"
       id="text4489"
       style="font-weight:bold;font-size:10.5833px;line-height:1.25;-inkscape-font-specification:'sans-serif, Bold';fill:#f2f2f2;stroke-width:1.3128"
       transform="matrix(0.20153996,0,0,0.20153996,-205.50072,-183.58916)">
      <path
         d="m 78.032891,-94.008805 q -0.516763,0.201537 -1.369421,0.403074 -0.852659,0.19637 -1.700149,0.19637 -1.963699,0 -3.074738,-1.064531 -1.11104,-1.069699 -1.11104,-2.950715 0,-1.793166 1.121375,-2.888703 1.121375,-1.1007 3.126414,-1.1007 0.759641,0 1.446936,0.13952 0.687294,0.13436 1.529617,0.5426 v 1.803504 h -0.222208 q -0.144693,-0.10852 -0.423745,-0.30489 -0.279052,-0.201538 -0.537433,-0.341064 -0.299723,-0.165364 -0.702798,-0.284219 -0.397907,-0.118855 -0.84749,-0.118855 -0.527098,0 -0.956011,0.155028 -0.428913,0.155029 -0.769977,0.475422 -0.32556,0.310058 -0.516762,0.790647 -0.186035,0.475422 -0.186035,1.100704 0,1.276404 0.676959,1.953363 0.676959,0.67696 1.999872,0.67696 0.113688,0 0.248046,-0.0052 0.139526,-0.0052 0.253214,-0.0155 v -1.508947 h -1.534786 v -1.452103 h 3.55016 z"
         id="path1019"
         style="stroke-width:1.3128" />
      <path
         d="m 83.913651,-97.600306 h -0.165365 q -0.118855,-0.04134 -0.382404,-0.06201 -0.263549,-0.02067 -0.439248,-0.02067 -0.397907,0 -0.702797,0.05168 -0.30489,0.05168 -0.656289,0.175699 v 3.886056 h -1.860346 v -5.803245 h 1.860346 v 0.852658 q 0.614948,-0.527098 1.069699,-0.697629 0.454751,-0.1757 0.837155,-0.1757 0.09819,0 0.222208,0.0052 0.124023,0.0052 0.217041,0.0155 z"
         id="path1021"
         style="stroke-width:1.3128" />
      <path
         d="m 88.481833,-95.083672 v -1.209225 q -0.377237,0.03101 -0.816486,0.08785 -0.439248,0.05168 -0.666623,0.124023 -0.279052,0.08785 -0.428913,0.258382 -0.144694,0.165364 -0.144694,0.439248 0,0.180867 0.03101,0.294555 0.03101,0.113687 0.155029,0.21704 0.118855,0.103352 0.284219,0.155029 0.165364,0.04651 0.516763,0.04651 0.279052,0 0.563271,-0.113687 0.289387,-0.113688 0.506428,-0.299723 z m 0,0.899167 q -0.149862,0.113688 -0.37207,0.273884 -0.222208,0.160197 -0.418577,0.253214 -0.273885,0.124023 -0.568439,0.180867 -0.294555,0.06201 -0.645954,0.06201 -0.82682,0 -1.384924,-0.511595 -0.558103,-0.511595 -0.558103,-1.30741 0,-0.635618 0.284219,-1.038693 0.28422,-0.403075 0.80615,-0.635618 0.516763,-0.232543 1.281571,-0.330728 0.764809,-0.09819 1.586462,-0.144694 v -0.03101 q 0,-0.480589 -0.39274,-0.661456 -0.39274,-0.186034 -1.157548,-0.186034 -0.459919,0 -0.981849,0.165364 -0.521931,0.160196 -0.749306,0.248046 h -0.170532 v -1.400427 q 0.294555,-0.07751 0.956011,-0.180867 0.666624,-0.10852 1.333248,-0.10852 1.586461,0 2.289258,0.490924 0.707965,0.485757 0.707965,1.529618 v 3.948067 h -1.844842 z"
         id="path1023"
         style="stroke-width:1.3128" />
      <path
         d="m 97.080763,-95.409232 q 0,0.899167 -0.80615,1.452103 -0.806149,0.547768 -2.206576,0.547768 -0.775144,0 -1.405595,-0.144693 -0.63045,-0.144694 -1.012855,-0.320393 v -1.529618 h 0.170532 q 0.139526,0.09819 0.320393,0.217041 0.186034,0.113687 0.52193,0.248046 0.289387,0.118855 0.656289,0.206705 0.366901,0.08268 0.785479,0.08268 0.547768,0 0.811317,-0.118856 0.263549,-0.124023 0.263549,-0.361733 0,-0.211873 -0.155028,-0.30489 -0.155029,-0.09819 -0.58911,-0.186035 -0.206705,-0.04651 -0.563271,-0.09819 -0.351399,-0.05684 -0.640786,-0.134358 -0.790647,-0.206705 -1.173051,-0.640786 -0.382405,-0.439248 -0.382405,-1.090369 0,-0.837156 0.790647,-1.390092 0.795815,-0.558103 2.170404,-0.558103 0.651121,0 1.245398,0.134358 0.599444,0.12919 0.93534,0.279052 v 1.467606 h -0.160196 q -0.41341,-0.28422 -0.945676,-0.459919 -0.527098,-0.180867 -1.069699,-0.180867 -0.449583,0 -0.759641,0.124023 -0.30489,0.124023 -0.30489,0.351399 0,0.206705 0.139526,0.315225 0.139526,0.10852 0.656289,0.21704 0.284219,0.05684 0.60978,0.113688 0.330728,0.05168 0.661456,0.134358 0.733803,0.191202 1.085201,0.604613 0.351399,0.408242 0.351399,1.02319 z"
         id="path1025"
         style="stroke-width:1.3128" />
      <path
         d="m 103.35943,-95.409232 q 0,0.899167 -0.80615,1.452103 -0.80615,0.547768 -2.20658,0.547768 -0.77514,0 -1.40559,-0.144693 -0.630451,-0.144694 -1.012855,-0.320393 v -1.529618 h 0.170531 q 0.139526,0.09819 0.320393,0.217041 0.186035,0.113687 0.521931,0.248046 0.289387,0.118855 0.656288,0.206705 0.366902,0.08268 0.785482,0.08268 0.54777,0 0.81131,-0.118856 0.26355,-0.124023 0.26355,-0.361733 0,-0.211873 -0.15502,-0.30489 -0.15503,-0.09819 -0.58911,-0.186035 -0.20671,-0.04651 -0.56328,-0.09819 -0.351394,-0.05684 -0.640781,-0.134358 -0.790647,-0.206705 -1.173052,-0.640786 -0.382404,-0.439248 -0.382404,-1.090369 0,-0.837156 0.790647,-1.390092 0.795814,-0.558103 2.1704,-0.558103 0.65112,0 1.2454,0.134358 0.59945,0.12919 0.93534,0.279052 v 1.467606 h -0.16019 q -0.41342,-0.28422 -0.94568,-0.459919 -0.5271,-0.180867 -1.0697,-0.180867 -0.44958,0 -0.75964,0.124023 -0.30489,0.124023 -0.30489,0.351399 0,0.206705 0.139525,0.315225 0.139525,0.10852 0.656285,0.21704 0.28422,0.05684 0.60978,0.113688 0.33073,0.05168 0.66146,0.134358 0.7338,0.191202 1.0852,0.604613 0.3514,0.408242 0.3514,1.02319 z"
         id="path1027"
         style="stroke-width:1.3128" />
      <path
         d="m 77.386938,-82.758882 q 0,1.136878 -0.966347,1.85001 -0.961178,0.707965 -2.614819,0.707965 -0.956011,0 -1.669143,-0.165364 -0.707965,-0.170531 -1.32808,-0.428913 v -1.844843 h 0.21704 q 0.614948,0.490925 1.374589,0.754474 0.764809,0.263549 1.467606,0.263549 0.180867,0 0.475421,-0.03101 0.294555,-0.03101 0.48059,-0.103352 0.227375,-0.09302 0.372069,-0.232544 0.149861,-0.139526 0.149861,-0.41341 0,-0.253213 -0.21704,-0.43408 -0.211873,-0.186035 -0.625283,-0.28422 -0.434081,-0.103352 -0.919838,-0.191202 -0.480589,-0.09302 -0.904334,-0.232543 -0.971514,-0.315225 -1.400427,-0.852659 -0.423746,-0.5426 -0.423746,-1.343583 0,-1.074866 0.961179,-1.751825 0.966346,-0.682127 2.480461,-0.682127 0.759641,0 1.498612,0.149861 0.744138,0.144694 1.286739,0.366902 v 1.772496 h -0.211873 q -0.465086,-0.372069 -1.142046,-0.620115 -0.671791,-0.253214 -1.374588,-0.253214 -0.248046,0 -0.496092,0.03617 -0.242879,0.03101 -0.470255,0.124023 -0.201537,0.07751 -0.346231,0.237711 -0.144693,0.155029 -0.144693,0.356566 0,0.30489 0.232543,0.470254 0.232543,0.160197 0.878497,0.294555 0.423745,0.08785 0.811317,0.170532 0.39274,0.08268 0.842323,0.227375 0.883664,0.289388 1.302242,0.790647 0.423746,0.496093 0.423746,1.291907 z"
         id="path1029"
         style="stroke-width:1.3128" />
      <path
         d="m 84.69913,-83.322153 q 0,0.7183 -0.222208,1.307409 -0.217041,0.58911 -0.573607,0.971514 -0.372069,0.403075 -0.842323,0.60978 -0.470254,0.206705 -1.007687,0.206705 -0.496092,0 -0.842323,-0.10852 -0.346231,-0.103353 -0.707965,-0.294555 v 2.41845 h -1.860346 v -7.932308 h 1.860346 v 0.604613 q 0.428913,-0.341064 0.873329,-0.552936 0.449583,-0.211873 1.033525,-0.211873 1.085202,0 1.684646,0.795815 0.604613,0.795814 0.604613,2.185906 z m -1.91719,0.03617 q 0,-0.847491 -0.289387,-1.229895 -0.289387,-0.382404 -0.91467,-0.382404 -0.263549,0 -0.542601,0.08268 -0.279052,0.07751 -0.532265,0.227375 v 2.919709 q 0.186034,0.07235 0.397907,0.09302 0.211873,0.02067 0.418578,0.02067 0.73897,0 1.100704,-0.428913 0.361734,-0.434081 0.361734,-1.302242 z"
         id="path1031"
         style="stroke-width:1.3128" />
      <path
         d="m 89.556699,-81.854547 v -1.209225 q -0.377237,0.03101 -0.816485,0.08785 -0.439249,0.05168 -0.666624,0.124023 -0.279052,0.08785 -0.428913,0.258381 -0.144694,0.165364 -0.144694,0.439248 0,0.180867 0.03101,0.294555 0.03101,0.113688 0.155029,0.21704 0.118855,0.103353 0.284219,0.155029 0.165364,0.04651 0.516763,0.04651 0.279052,0 0.563271,-0.113688 0.289387,-0.113688 0.506428,-0.299722 z m 0,0.899167 q -0.149861,0.113688 -0.372069,0.273884 -0.222208,0.160196 -0.418578,0.253214 -0.273884,0.124023 -0.568439,0.180867 -0.294555,0.06201 -0.645953,0.06201 -0.826821,0 -1.384924,-0.511595 -0.558104,-0.511595 -0.558104,-1.307409 0,-0.635619 0.284219,-1.038693 0.28422,-0.403075 0.80615,-0.635619 0.516763,-0.232543 1.281572,-0.330728 0.764808,-0.09819 1.586461,-0.144693 v -0.03101 q 0,-0.480589 -0.39274,-0.661456 -0.392739,-0.186035 -1.157548,-0.186035 -0.459919,0 -0.981849,0.165364 -0.52193,0.160197 -0.749306,0.248046 h -0.170532 v -1.400426 q 0.294555,-0.07751 0.956011,-0.180867 0.666624,-0.108521 1.333248,-0.108521 1.586461,0 2.289259,0.490925 0.707965,0.485757 0.707965,1.529617 v 3.948067 h -1.844843 z"
         id="path1033"
         style="stroke-width:1.3128" />
      <path
         d="m 102.36725,-86.143678 -1.79834,5.803245 h -1.974031 l -1.183387,-3.911893 -1.162716,3.911893 h -1.999872 l -1.782831,-5.803245 h 1.953363 l 0.992185,3.999744 1.24023,-3.999744 h 1.648473 l 1.178219,3.999744 0.976677,-3.999744 z"
         id="path1035"
         style="stroke-width:1.3128" />
      <path
         d="m 109.30737,-80.340433 h -1.87068 v -2.878368 q 0,-0.351398 -0.0362,-0.697629 -0.0362,-0.351399 -0.12402,-0.516763 -0.10335,-0.191202 -0.30489,-0.279052 -0.19637,-0.08785 -0.55294,-0.08785 -0.25321,0 -0.51676,0.08268 -0.25838,0.08268 -0.56327,0.263549 v 4.113431 h -1.86034 v -5.803245 h 1.86034 v 0.640786 q 0.49609,-0.387572 0.95084,-0.594277 0.45992,-0.206705 1.01803,-0.206705 0.9405,0 1.4676,0.547768 0.53227,0.547769 0.53227,1.638138 z"
         id="path1037"
         style="stroke-width:1.3128" />
    </g>
    <path
       style="fill:#f2f2f2;fill-opacity:1;stroke:none;stroke-width:0.85599998;stroke-linecap:round;stroke-linejoin:round;stroke-opacity:1;stroke-miterlimit:4;stroke-dasharray:none"
       d="m -190.15163,-207.30579 c 0.47743,0.49973 2.9328,1.4068 2.99897,1.05745 1.53928,-1.94642 -0.35201,-3.61472 -1.0083,-1.78449 0.74646,-2.49977 -1.33037,-4.15361 -1.30213,-0.6419 -1.84545,-4.19777 -1.59101,0.0355 -0.68854,1.36893 z"
       id="path867"
       sodipodi:nodetypes="ccccc" />
    <path
       style="fill:#f2f2f2;fill-opacity:1;stroke:none;stroke-width:0.85599998;stroke-linecap:round;stroke-linejoin:round;stroke-opacity:1;stroke-miterlimit:4;stroke-dasharray:none"
       d="m -185.97414,-208.2787 c 0.47743,0.18909 2.9328,-0.50143 2.99897,-0.89383 1.53928,-2.94795 -0.35201,-3.38569 -1.0083,-1.12844 0.74646,-2.98545 -1.33037,-3.28801 -1.30213,0.20533 -1.84545,-2.99703 -1.59101,1.07069 -0.68854,1.81693 z"
       id="path1167"
       sodipodi:nodetypes="ccccc" />
  </g>
</svg>
